<svg height="256" width="256" id="fades" viewbox="0 0 256 256">

<path id="qsin" stroke="red" stroke-width="5" fill="none"

  d=" 
M 0 0 
L 1 0.00963816 
L 2 0.0385512 
L 3 0.0867348 
L 4 0.154182 
L 5 0.240882 
L 6 0.346822 
L 7 0.471986 
L 8 0.616355 
L 9 0.779908 
L 10 0.96262 
L 11 1.16446 
L 12 1.38541 
L 13 1.62542 
L 14 1.88446 
L 15 2.1625 
L 16 2.45948 
L 17 2.77538 
L 18 3.11013 
L 19 3.46369 
L 20 3.836 
L 21 4.22701 
L 22 4.63666 
L 23 5.06489 
L 24 5.51164 
L 25 5.97683 
L 26 6.46039 
L 27 6.96226 
L 28 7.48236 
L 29 8.02061 
L 30 8.57692 
L 31 9.15122 
L 32 9.74342 
L 33 10.3534 
L 34 10.9812 
L 35 11.6265 
L 36 12.2894 
L 37 12.9697 
L 38 13.6673 
L 39 14.3821 
L 40 15.1141 
L 41 15.863 
L 42 16.6289 
L 43 17.4115 
L 44 18.2107 
L 45 19.0265 
L 46 19.8587 
L 47 20.7072 
L 48 21.5719 
L 49 22.4526 
L 50 23.3491 
L 51 24.2615 
L 52 25.1894 
L 53 26.1329 
L 54 27.0917 
L 55 28.0656 
L 56 29.0547 
L 57 30.0586 
L 58 31.0773 
L 59 32.1105 
L 60 33.1583 
L 61 34.2203 
L 62 35.2964 
L 63 36.3865 
L 64 37.4903 
L 65 38.6078 
L 66 39.7388 
L 67 40.8831 
L 68 42.0405 
L 69 43.2108 
L 70 44.3939 
L 71 45.5896 
L 72 46.7977 
L 73 48.018 
L 74 49.2504 
L 75 50.4946 
L 76 51.7505 
L 77 53.0179 
L 78 54.2966 
L 79 55.5863 
L 80 56.887 
L 81 58.1984 
L 82 59.5203 
L 83 60.8525 
L 84 62.1948 
L 85 63.5471 
L 86 64.909 
L 87 66.2805 
L 88 67.6612 
L 89 69.051 
L 90 70.4497 
L 91 71.8571 
L 92 73.2729 
L 93 74.697 
L 94 76.1291 
L 95 77.569 
L 96 79.0165 
L 97 80.4714 
L 98 81.9334 
L 99 83.4024 
L 100 84.8781 
L 101 86.3603 
L 102 87.8487 
L 103 89.3432 
L 104 90.8436 
L 105 92.3495 
L 106 93.8608 
L 107 95.3772 
L 108 96.8985 
L 109 98.4246 
L 110 99.955 
L 111 101.49 
L 112 103.028 
L 113 104.571 
L 114 106.117 
L 115 107.666 
L 116 109.218 
L 117 110.774 
L 118 112.331 
L 119 113.892 
L 120 115.454 
L 121 117.018 
L 122 118.584 
L 123 120.151 
L 124 121.719 
L 125 123.289 
L 126 124.859 
L 127 126.429 
L 128 128 
L 129 129.571 
L 130 131.141 
L 131 132.711 
L 132 134.281 
L 133 135.849 
L 134 137.416 
L 135 138.982 
L 136 140.546 
L 137 142.108 
L 138 143.669 
L 139 145.226 
L 140 146.782 
L 141 148.334 
L 142 149.883 
L 143 151.429 
L 144 152.972 
L 145 154.51 
L 146 156.045 
L 147 157.575 
L 148 159.101 
L 149 160.623 
L 150 162.139 
L 151 163.651 
L 152 165.156 
L 153 166.657 
L 154 168.151 
L 155 169.64 
L 156 171.122 
L 157 172.598 
L 158 174.067 
L 159 175.529 
L 160 176.983 
L 161 178.431 
L 162 179.871 
L 163 181.303 
L 164 182.727 
L 165 184.143 
L 166 185.55 
L 167 186.949 
L 168 188.339 
L 169 189.72 
L 170 191.091 
L 171 192.453 
L 172 193.805 
L 173 195.147 
L 174 196.48 
L 175 197.802 
L 176 199.113 
L 177 200.414 
L 178 201.703 
L 179 202.982 
L 180 204.25 
L 181 205.505 
L 182 206.75 
L 183 207.982 
L 184 209.202 
L 185 210.41 
L 186 211.606 
L 187 212.789 
L 188 213.96 
L 189 215.117 
L 190 216.261 
L 191 217.392 
L 192 218.51 
L 193 219.614 
L 194 220.704 
L 195 221.78 
L 196 222.842 
L 197 223.889 
L 198 224.923 
L 199 225.941 
L 200 226.945 
L 201 227.934 
L 202 228.908 
L 203 229.867 
L 204 230.811 
L 205 231.739 
L 206 232.651 
L 207 233.547 
L 208 234.428 
L 209 235.293 
L 210 236.141 
L 211 236.973 
L 212 237.789 
L 213 238.589 
L 214 239.371 
L 215 240.137 
L 216 240.886 
L 217 241.618 
L 218 242.333 
L 219 243.03 
L 220 243.711 
L 221 244.374 
L 222 245.019 
L 223 245.647 
L 224 246.257 
L 225 246.849 
L 226 247.423 
L 227 247.979 
L 228 248.518 
L 229 249.038 
L 230 249.54 
L 231 250.023 
L 232 250.488 
L 233 250.935 
L 234 251.363 
L 235 251.773 
L 236 252.164 
L 237 252.536 
L 238 252.89 
L 239 253.225 
L 240 253.541 
L 241 253.838 
L 242 254.116 
L 243 254.375 
L 244 254.615 
L 245 254.836 
L 246 255.037 
L 247 255.22 
L 248 255.384 
L 249 255.528 
L 250 255.653 
L 251 255.759 
L 252 255.846 
L 253 255.913 
L 254 255.961 
L 255 255.99 
" />

<path id="ipar" stroke="black" stroke-width="5" fill="none"

  d=" 
M 0 0 
L 1 1.47069e-07 
L 2 2.3531e-06 
L 3 1.19126e-05 
L 4 3.76496e-05 
L 5 9.19178e-05 
L 6 0.000190601 
L 7 0.000353111 
L 8 0.000602392 
L 9 0.000964916 
L 10 0.00147068 
L 11 0.00215322 
L 12 0.0030496 
L 13 0.0042004 
L 14 0.00564974 
L 15 0.00744527 
L 16 0.00963816 
L 17 0.0122831 
L 18 0.0154384 
L 19 0.0191656 
L 20 0.0235302 
L 21 0.028601 
L 22 0.0344501 
L 23 0.0411536 
L 24 0.0487907 
L 25 0.0574444 
L 26 0.0672009 
L 27 0.0781503 
L 28 0.0903859 
L 29 0.104005 
L 30 0.119107 
L 31 0.135797 
L 32 0.154182 
L 33 0.174372 
L 34 0.196483 
L 35 0.220631 
L 36 0.246939 
L 37 0.275531 
L 38 0.306536 
L 39 0.340084 
L 40 0.376311 
L 41 0.415356 
L 42 0.45736 
L 43 0.502469 
L 44 0.550832 
L 45 0.6026 
L 46 0.657929 
L 47 0.716977 
L 48 0.779908 
L 49 0.846885 
L 50 0.918079 
L 51 0.99366 
L 52 1.0738 
L 53 1.15869 
L 54 1.2485 
L 55 1.34341 
L 56 1.44362 
L 57 1.54932 
L 58 1.6607 
L 59 1.77795 
L 60 1.90128 
L 61 2.03089 
L 62 2.16699 
L 63 2.30979 
L 64 2.45948 
L 65 2.6163 
L 66 2.78046 
L 67 2.95218 
L 68 3.13167 
L 69 3.31918 
L 70 3.51491 
L 71 3.71911 
L 72 3.932 
L 73 4.15383 
L 74 4.38482 
L 75 4.62521 
L 76 4.87526 
L 77 5.1352 
L 78 5.40527 
L 79 5.68573 
L 80 5.97683 
L 81 6.2788 
L 82 6.59192 
L 83 6.91643 
L 84 7.25258 
L 85 7.60064 
L 86 7.96085 
L 87 8.33349 
L 88 8.71881 
L 89 9.11708 
L 90 9.52854 
L 91 9.95348 
L 92 10.3921 
L 93 10.8448 
L 94 11.3117 
L 95 11.7931 
L 96 12.2894 
L 97 12.8006 
L 98 13.3272 
L 99 13.8694 
L 100 14.4274 
L 101 15.0015 
L 102 15.5919 
L 103 16.199 
L 104 16.8229 
L 105 17.464 
L 106 18.1225 
L 107 18.7986 
L 108 19.4926 
L 109 20.2048 
L 110 20.9353 
L 111 21.6845 
L 112 22.4526 
L 113 23.2397 
L 114 24.0462 
L 115 24.8723 
L 116 25.7182 
L 117 26.5841 
L 118 27.4703 
L 119 28.3769 
L 120 29.3043 
L 121 30.2524 
L 122 31.2217 
L 123 32.2122 
L 124 33.2242 
L 125 34.2578 
L 126 35.3133 
L 127 36.3907 
L 128 37.4903 
L 129 38.6122 
L 130 39.7566 
L 131 40.9235 
L 132 42.1132 
L 133 43.3258 
L 134 44.5613 
L 135 45.8198 
L 136 47.1016 
L 137 48.4066 
L 138 49.735 
L 139 51.0868 
L 140 52.462 
L 141 53.8607 
L 142 55.2831 
L 143 56.7289 
L 144 58.1984 
L 145 59.6915 
L 146 61.2081 
L 147 62.7483 
L 148 64.312 
L 149 65.8992 
L 150 67.5098 
L 151 69.1437 
L 152 70.8008 
L 153 72.481 
L 154 74.1843 
L 155 75.9104 
L 156 77.6593 
L 157 79.4306 
L 158 81.2244 
L 159 83.0403 
L 160 84.8781 
L 161 86.7376 
L 162 88.6186 
L 163 90.5207 
L 164 92.4438 
L 165 94.3874 
L 166 96.3513 
L 167 98.335 
L 168 100.338 
L 169 102.361 
L 170 104.402 
L 171 106.462 
L 172 108.539 
L 173 110.634 
L 174 112.746 
L 175 114.874 
L 176 117.018 
L 177 119.177 
L 178 121.352 
L 179 123.54 
L 180 125.742 
L 181 127.957 
L 182 130.184 
L 183 132.423 
L 184 134.673 
L 185 136.933 
L 186 139.202 
L 187 141.48 
L 188 143.766 
L 189 146.059 
L 190 148.358 
L 191 150.663 
L 192 152.972 
L 193 155.284 
L 194 157.599 
L 195 159.916 
L 196 162.234 
L 197 164.551 
L 198 166.867 
L 199 169.181 
L 200 171.491 
L 201 173.797 
L 202 176.098 
L 203 178.392 
L 204 180.677 
L 205 182.954 
L 206 185.221 
L 207 187.477 
L 208 189.72 
L 209 191.949 
L 210 194.163 
L 211 196.36 
L 212 198.541 
L 213 200.702 
L 214 202.843 
L 215 204.962 
L 216 207.059 
L 217 209.131 
L 218 211.178 
L 219 213.198 
L 220 215.189 
L 221 217.15 
L 222 219.081 
L 223 220.978 
L 224 222.842 
L 225 224.67 
L 226 226.461 
L 227 228.214 
L 228 229.927 
L 229 231.598 
L 230 233.227 
L 231 234.812 
L 232 236.351 
L 233 237.843 
L 234 239.286 
L 235 240.68 
L 236 242.022 
L 237 243.311 
L 238 244.547 
L 239 245.726 
L 240 246.849 
L 241 247.913 
L 242 248.917 
L 243 249.861 
L 244 250.742 
L 245 251.559 
L 246 252.312 
L 247 252.998 
L 248 253.617 
L 249 254.167 
L 250 254.647 
L 251 255.056 
L 252 255.393 
L 253 255.657 
L 254 255.847 
L 255 255.962 
" />

<path id="tri" stroke="blue" stroke-width="5" fill="none"

  d=" 
M 0 0 
L 1 1 
L 2 2 
L 3 3 
L 4 4 
L 5 5 
L 6 6 
L 7 7 
L 8 8 
L 9 9 
L 10 10 
L 11 11 
L 12 12 
L 13 13 
L 14 14 
L 15 15 
L 16 16 
L 17 17 
L 18 18 
L 19 19 
L 20 20 
L 21 21 
L 22 22 
L 23 23 
L 24 24 
L 25 25 
L 26 26 
L 27 27 
L 28 28 
L 29 29 
L 30 30 
L 31 31 
L 32 32 
L 33 33 
L 34 34 
L 35 35 
L 36 36 
L 37 37 
L 38 38 
L 39 39 
L 40 40 
L 41 41 
L 42 42 
L 43 43 
L 44 44 
L 45 45 
L 46 46 
L 47 47 
L 48 48 
L 49 49 
L 50 50 
L 51 51 
L 52 52 
L 53 53 
L 54 54 
L 55 55 
L 56 56 
L 57 57 
L 58 58 
L 59 59 
L 60 60 
L 61 61 
L 62 62 
L 63 63 
L 64 64 
L 65 65 
L 66 66 
L 67 67 
L 68 68 
L 69 69 
L 70 70 
L 71 71 
L 72 72 
L 73 73 
L 74 74 
L 75 75 
L 76 76 
L 77 77 
L 78 78 
L 79 79 
L 80 80 
L 81 81 
L 82 82 
L 83 83 
L 84 84 
L 85 85 
L 86 86 
L 87 87 
L 88 88 
L 89 89 
L 90 90 
L 91 91 
L 92 92 
L 93 93 
L 94 94 
L 95 95 
L 96 96 
L 97 97 
L 98 98 
L 99 99 
L 100 100 
L 101 101 
L 102 102 
L 103 103 
L 104 104 
L 105 105 
L 106 106 
L 107 107 
L 108 108 
L 109 109 
L 110 110 
L 111 111 
L 112 112 
L 113 113 
L 114 114 
L 115 115 
L 116 116 
L 117 117 
L 118 118 
L 119 119 
L 120 120 
L 121 121 
L 122 122 
L 123 123 
L 124 124 
L 125 125 
L 126 126 
L 127 127 
L 128 128 
L 129 129 
L 130 130 
L 131 131 
L 132 132 
L 133 133 
L 134 134 
L 135 135 
L 136 136 
L 137 137 
L 138 138 
L 139 139 
L 140 140 
L 141 141 
L 142 142 
L 143 143 
L 144 144 
L 145 145 
L 146 146 
L 147 147 
L 148 148 
L 149 149 
L 150 150 
L 151 151 
L 152 152 
L 153 153 
L 154 154 
L 155 155 
L 156 156 
L 157 157 
L 158 158 
L 159 159 
L 160 160 
L 161 161 
L 162 162 
L 163 163 
L 164 164 
L 165 165 
L 166 166 
L 167 167 
L 168 168 
L 169 169 
L 170 170 
L 171 171 
L 172 172 
L 173 173 
L 174 174 
L 175 175 
L 176 176 
L 177 177 
L 178 178 
L 179 179 
L 180 180 
L 181 181 
L 182 182 
L 183 183 
L 184 184 
L 185 185 
L 186 186 
L 187 187 
L 188 188 
L 189 189 
L 190 190 
L 191 191 
L 192 192 
L 193 193 
L 194 194 
L 195 195 
L 196 196 
L 197 197 
L 198 198 
L 199 199 
L 200 200 
L 201 201 
L 202 202 
L 203 203 
L 204 204 
L 205 205 
L 206 206 
L 207 207 
L 208 208 
L 209 209 
L 210 210 
L 211 211 
L 212 212 
L 213 213 
L 214 214 
L 215 215 
L 216 216 
L 217 217 
L 218 218 
L 219 219 
L 220 220 
L 221 221 
L 222 222 
L 223 223 
L 224 224 
L 225 225 
L 226 226 
L 227 227 
L 228 228 
L 229 229 
L 230 230 
L 231 231 
L 232 232 
L 233 233 
L 234 234 
L 235 235 
L 236 236 
L 237 237 
L 238 238 
L 239 239 
L 240 240 
L 241 241 
L 242 242 
L 243 243 
L 244 244 
L 245 245 
L 246 246 
L 247 247 
L 248 248 
L 249 249 
L 250 250 
L 251 251 
L 252 252 
L 253 253 
L 254 254 
L 255 255 
" />

<path id="hsin" stroke="green" stroke-width="5" fill="none"

  d=" 
M 0 0 
L 1 0 
L 2 3.41061e-13 
L 3 8.29914e-12 
L 4 8.31051e-11 
L 5 4.95163e-10 
L 6 2.12788e-09 
L 7 7.29852e-09 
L 8 2.12248e-08 
L 9 5.44118e-08 
L 10 1.26281e-07 
L 11 2.7041e-07 
L 12 5.41788e-07 
L 13 1.02655e-06 
L 14 1.85468e-06 
L 15 3.2162e-06 
L 16 5.38141e-06 
L 17 8.72585e-06 
L 18 1.37604e-05 
L 19 2.11677e-05 
L 20 3.18445e-05 
L 21 4.69519e-05 
L 22 6.79739e-05 
L 23 9.67834e-05 
L 24 0.000135719 
L 25 0.000187673 
L 26 0.000256186 
L 27 0.000345558 
L 28 0.000460971 
L 29 0.000608623 
L 30 0.000795876 
L 31 0.00103142 
L 32 0.00132545 
L 33 0.00168988 
L 34 0.0021385 
L 35 0.00268729 
L 36 0.00335457 
L 37 0.00416134 
L 38 0.00513153 
L 39 0.00629229 
L 40 0.00767436 
L 41 0.00931234 
L 42 0.0112451 
L 43 0.0135162 
L 44 0.0161741 
L 45 0.0192729 
L 46 0.0228725 
L 47 0.0270392 
L 48 0.031846 
L 49 0.0373734 
L 50 0.0437098 
L 51 0.0509519 
L 52 0.0592052 
L 53 0.0685851 
L 54 0.0792168 
L 55 0.0912363 
L 56 0.104791 
L 57 0.12004 
L 58 0.137156 
L 59 0.156323 
L 60 0.17774 
L 61 0.201622 
L 62 0.228198 
L 63 0.257711 
L 64 0.290424 
L 65 0.326616 
L 66 0.366583 
L 67 0.41064 
L 68 0.459124 
L 69 0.512387 
L 70 0.570807 
L 71 0.634779 
L 72 0.704721 
L 73 0.781076 
L 74 0.864307 
L 75 0.954901 
L 76 1.05337 
L 77 1.16025 
L 78 1.2761 
L 79 1.40151 
L 80 1.5371 
L 81 1.68349 
L 82 1.84135 
L 83 2.01138 
L 84 2.19428 
L 85 2.39081 
L 86 2.60174 
L 87 2.82785 
L 88 3.06998 
L 89 3.32897 
L 90 3.60569 
L 91 3.90104 
L 92 4.21595 
L 93 4.55137 
L 94 4.90826 
L 95 5.28762 
L 96 5.69046 
L 97 6.11781 
L 98 6.57073 
L 99 7.05028 
L 100 7.55756 
L 101 8.09366 
L 102 8.65971 
L 103 9.25681 
L 104 9.8861 
L 105 10.5487 
L 106 11.2458 
L 107 11.9786 
L 108 12.7481 
L 109 13.5555 
L 110 14.4019 
L 111 15.2886 
L 112 16.2165 
L 113 17.1868 
L 114 18.2006 
L 115 19.2589 
L 116 20.3628 
L 117 21.5133 
L 118 22.7113 
L 119 23.9578 
L 120 25.2537 
L 121 26.5999 
L 122 27.9971 
L 123 29.446 
L 124 30.9475 
L 125 32.5021 
L 126 34.1105 
L 127 35.7731 
L 128 37.4903 
L 129 39.2626 
L 130 41.0902 
L 131 42.9734 
L 132 44.9122 
L 133 46.9066 
L 134 48.9567 
L 135 51.0623 
L 136 53.2231 
L 137 55.4387 
L 138 57.7088 
L 139 60.0327 
L 140 62.4098 
L 141 64.8393 
L 142 67.3203 
L 143 69.8519 
L 144 72.4329 
L 145 75.0622 
L 146 77.7384 
L 147 80.4601 
L 148 83.2257 
L 149 86.0337 
L 150 88.8822 
L 151 91.7694 
L 152 94.6933 
L 153 97.6519 
L 154 100.643 
L 155 103.664 
L 156 106.714 
L 157 109.789 
L 158 112.887 
L 159 116.005 
L 160 119.142 
L 161 122.293 
L 162 125.457 
L 163 128.631 
L 164 131.811 
L 165 134.995 
L 166 138.18 
L 167 141.364 
L 168 144.542 
L 169 147.713 
L 170 150.872 
L 171 154.019 
L 172 157.148 
L 173 160.258 
L 174 163.346 
L 175 166.408 
L 176 169.442 
L 177 172.446 
L 178 175.416 
L 179 178.351 
L 180 181.246 
L 181 184.101 
L 182 186.913 
L 183 189.679 
L 184 192.398 
L 185 195.067 
L 186 197.684 
L 187 200.248 
L 188 202.757 
L 189 205.209 
L 190 207.603 
L 191 209.937 
L 192 212.211 
L 193 214.423 
L 194 216.572 
L 195 218.658 
L 196 220.68 
L 197 222.637 
L 198 224.53 
L 199 226.357 
L 200 228.119 
L 201 229.815 
L 202 231.447 
L 203 233.013 
L 204 234.515 
L 205 235.953 
L 206 237.327 
L 207 238.639 
L 208 239.889 
L 209 241.078 
L 210 242.207 
L 211 243.278 
L 212 244.291 
L 213 245.248 
L 214 246.15 
L 215 246.998 
L 216 247.795 
L 217 248.541 
L 218 249.238 
L 219 249.889 
L 220 250.493 
L 221 251.055 
L 222 251.574 
L 223 252.053 
L 224 252.494 
L 225 252.898 
L 226 253.268 
L 227 253.604 
L 228 253.91 
L 229 254.186 
L 230 254.434 
L 231 254.657 
L 232 254.856 
L 233 255.032 
L 234 255.187 
L 235 255.323 
L 236 255.442 
L 237 255.544 
L 238 255.632 
L 239 255.706 
L 240 255.769 
L 241 255.821 
L 242 255.864 
L 243 255.899 
L 244 255.926 
L 245 255.948 
L 246 255.964 
L 247 255.977 
L 248 255.985 
L 249 255.991 
L 250 255.995 
L 251 255.998 
L 252 255.999 
L 253 256 
L 254 256 
L 255 256 
" />

<path id="esin" stroke="cyan" stroke-width="5" fill="none"

  d=" 
M 0 0 
L 1 5.68434e-14 
L 2 1.20508e-11 
L 3 3.08148e-10 
L 4 3.07432e-09 
L 5 1.82957e-08 
L 6 7.85176e-08 
L 7 2.68881e-07 
L 8 7.8048e-07 
L 9 1.99663e-06 
L 10 4.623e-06 
L 11 9.87369e-06 
L 12 1.97266e-05 
L 13 3.72617e-05 
L 14 6.70972e-05 
L 15 0.000115937 
L 16 0.000193249 
L 17 0.000312078 
L 18 0.000490022 
L 19 0.000750377 
L 20 0.00112346 
L 21 0.00164812 
L 22 0.00237347 
L 23 0.00336081 
L 24 0.00468579 
L 25 0.00644075 
L 26 0.00873732 
L 27 0.0117093 
L 28 0.0155154 
L 29 0.0203431 
L 30 0.0264112 
L 31 0.0339743 
L 32 0.0433261 
L 33 0.0548033 
L 34 0.0687902 
L 35 0.0857221 
L 36 0.10609 
L 37 0.130446 
L 38 0.159405 
L 39 0.193651 
L 40 0.233941 
L 41 0.281109 
L 42 0.33607 
L 43 0.399825 
L 44 0.47346 
L 45 0.558156 
L 46 0.655186 
L 47 0.765923 
L 48 0.891837 
L 49 1.0345 
L 50 1.19558 
L 51 1.37686 
L 52 1.58021 
L 53 1.80762 
L 54 2.06116 
L 55 2.34301 
L 56 2.65543 
L 57 3.0008 
L 58 3.38156 
L 59 3.80022 
L 60 4.2594 
L 61 4.76176 
L 62 5.31002 
L 63 5.90694 
L 64 6.55534 
L 65 7.25805 
L 66 8.01791 
L 67 8.83776 
L 68 9.72046 
L 69 10.6688 
L 70 11.6855 
L 71 12.7734 
L 72 13.935 
L 73 15.1728 
L 74 16.4894 
L 75 17.887 
L 76 19.3678 
L 77 20.9338 
L 78 22.5868 
L 79 24.3285 
L 80 26.1603 
L 81 28.0834 
L 82 30.0988 
L 83 32.2071 
L 84 34.4089 
L 85 36.7044 
L 86 39.0934 
L 87 41.5755 
L 88 44.15 
L 89 46.816 
L 90 49.572 
L 91 52.4166 
L 92 55.3477 
L 93 58.3631 
L 94 61.4602 
L 95 64.6362 
L 96 67.888 
L 97 71.2121 
L 98 74.6049 
L 99 78.0623 
L 100 81.5802 
L 101 85.1542 
L 102 88.7797 
L 103 92.4518 
L 104 96.1655 
L 105 99.9158 
L 106 103.697 
L 107 107.505 
L 108 111.333 
L 109 115.176 
L 110 119.029 
L 111 122.885 
L 112 126.74 
L 113 130.589 
L 114 134.425 
L 115 138.243 
L 116 142.039 
L 117 145.807 
L 118 149.542 
L 119 153.24 
L 120 156.896 
L 121 160.505 
L 122 164.064 
L 123 167.569 
L 124 171.015 
L 125 174.4 
L 126 177.721 
L 127 180.974 
L 128 184.156 
L 129 187.266 
L 130 190.301 
L 131 193.259 
L 132 196.139 
L 133 198.939 
L 134 201.658 
L 135 204.296 
L 136 206.851 
L 137 209.324 
L 138 211.713 
L 139 214.02 
L 140 216.244 
L 141 218.386 
L 142 220.447 
L 143 222.426 
L 144 224.326 
L 145 226.147 
L 146 227.891 
L 147 229.559 
L 148 231.153 
L 149 232.673 
L 150 234.122 
L 151 235.502 
L 152 236.814 
L 153 238.06 
L 154 239.243 
L 155 240.364 
L 156 241.425 
L 157 242.429 
L 158 243.376 
L 159 244.271 
L 160 245.114 
L 161 245.907 
L 162 246.653 
L 163 247.353 
L 164 248.01 
L 165 248.626 
L 166 249.202 
L 167 249.741 
L 168 250.244 
L 169 250.713 
L 170 251.15 
L 171 251.556 
L 172 251.933 
L 173 252.284 
L 174 252.608 
L 175 252.909 
L 176 253.187 
L 177 253.443 
L 178 253.679 
L 179 253.897 
L 180 254.097 
L 181 254.28 
L 182 254.449 
L 183 254.603 
L 184 254.744 
L 185 254.872 
L 186 254.989 
L 187 255.096 
L 188 255.192 
L 189 255.28 
L 190 255.36 
L 191 255.431 
L 192 255.496 
L 193 255.554 
L 194 255.607 
L 195 255.654 
L 196 255.696 
L 197 255.733 
L 198 255.767 
L 199 255.797 
L 200 255.823 
L 201 255.846 
L 202 255.867 
L 203 255.885 
L 204 255.901 
L 205 255.915 
L 206 255.928 
L 207 255.938 
L 208 255.948 
L 209 255.956 
L 210 255.963 
L 211 255.969 
L 212 255.974 
L 213 255.978 
L 214 255.982 
L 215 255.985 
L 216 255.988 
L 217 255.99 
L 218 255.992 
L 219 255.993 
L 220 255.995 
L 221 255.996 
L 222 255.997 
L 223 255.997 
L 224 255.998 
L 225 255.998 
L 226 255.999 
L 227 255.999 
L 228 255.999 
L 229 255.999 
L 230 256 
L 231 256 
L 232 256 
L 233 256 
L 234 256 
L 235 256 
L 236 256 
L 237 256 
L 238 256 
L 239 256 
L 240 256 
L 241 256 
L 242 256 
L 243 256 
L 244 256 
L 245 256 
L 246 256 
L 247 256 
L 248 256 
L 249 256 
L 250 256 
L 251 256 
L 252 256 
L 253 256 
L 254 256 
L 255 256 
" />

<path id="qua" stroke="magenta" stroke-width="5" fill="none"

  d=" 
M 0 0 
L 1 1.99609 
L 2 3.98438 
L 3 5.96484 
L 4 7.9375 
L 5 9.90234 
L 6 11.8594 
L 7 13.8086 
L 8 15.75 
L 9 17.6836 
L 10 19.6094 
L 11 21.5273 
L 12 23.4375 
L 13 25.3398 
L 14 27.2344 
L 15 29.1211 
L 16 31 
L 17 32.8711 
L 18 34.7344 
L 19 36.5898 
L 20 38.4375 
L 21 40.2773 
L 22 42.1094 
L 23 43.9336 
L 24 45.75 
L 25 47.5586 
L 26 49.3594 
L 27 51.1523 
L 28 52.9375 
L 29 54.7148 
L 30 56.4844 
L 31 58.2461 
L 32 60 
L 33 61.7461 
L 34 63.4844 
L 35 65.2148 
L 36 66.9375 
L 37 68.6523 
L 38 70.3594 
L 39 72.0586 
L 40 73.75 
L 41 75.4336 
L 42 77.1094 
L 43 78.7773 
L 44 80.4375 
L 45 82.0898 
L 46 83.7344 
L 47 85.3711 
L 48 87 
L 49 88.6211 
L 50 90.2344 
L 51 91.8398 
L 52 93.4375 
L 53 95.0273 
L 54 96.6094 
L 55 98.1836 
L 56 99.75 
L 57 101.309 
L 58 102.859 
L 59 104.402 
L 60 105.938 
L 61 107.465 
L 62 108.984 
L 63 110.496 
L 64 112 
L 65 113.496 
L 66 114.984 
L 67 116.465 
L 68 117.938 
L 69 119.402 
L 70 120.859 
L 71 122.309 
L 72 123.75 
L 73 125.184 
L 74 126.609 
L 75 128.027 
L 76 129.438 
L 77 130.84 
L 78 132.234 
L 79 133.621 
L 80 135 
L 81 136.371 
L 82 137.734 
L 83 139.09 
L 84 140.438 
L 85 141.777 
L 86 143.109 
L 87 144.434 
L 88 145.75 
L 89 147.059 
L 90 148.359 
L 91 149.652 
L 92 150.938 
L 93 152.215 
L 94 153.484 
L 95 154.746 
L 96 156 
L 97 157.246 
L 98 158.484 
L 99 159.715 
L 100 160.938 
L 101 162.152 
L 102 163.359 
L 103 164.559 
L 104 165.75 
L 105 166.934 
L 106 168.109 
L 107 169.277 
L 108 170.438 
L 109 171.59 
L 110 172.734 
L 111 173.871 
L 112 175 
L 113 176.121 
L 114 177.234 
L 115 178.34 
L 116 179.438 
L 117 180.527 
L 118 181.609 
L 119 182.684 
L 120 183.75 
L 121 184.809 
L 122 185.859 
L 123 186.902 
L 124 187.938 
L 125 188.965 
L 126 189.984 
L 127 190.996 
L 128 192 
L 129 192.996 
L 130 193.984 
L 131 194.965 
L 132 195.938 
L 133 196.902 
L 134 197.859 
L 135 198.809 
L 136 199.75 
L 137 200.684 
L 138 201.609 
L 139 202.527 
L 140 203.438 
L 141 204.34 
L 142 205.234 
L 143 206.121 
L 144 207 
L 145 207.871 
L 146 208.734 
L 147 209.59 
L 148 210.438 
L 149 211.277 
L 150 212.109 
L 151 212.934 
L 152 213.75 
L 153 214.559 
L 154 215.359 
L 155 216.152 
L 156 216.938 
L 157 217.715 
L 158 218.484 
L 159 219.246 
L 160 220 
L 161 220.746 
L 162 221.484 
L 163 222.215 
L 164 222.938 
L 165 223.652 
L 166 224.359 
L 167 225.059 
L 168 225.75 
L 169 226.434 
L 170 227.109 
L 171 227.777 
L 172 228.438 
L 173 229.09 
L 174 229.734 
L 175 230.371 
L 176 231 
L 177 231.621 
L 178 232.234 
L 179 232.84 
L 180 233.438 
L 181 234.027 
L 182 234.609 
L 183 235.184 
L 184 235.75 
L 185 236.309 
L 186 236.859 
L 187 237.402 
L 188 237.938 
L 189 238.465 
L 190 238.984 
L 191 239.496 
L 192 240 
L 193 240.496 
L 194 240.984 
L 195 241.465 
L 196 241.938 
L 197 242.402 
L 198 242.859 
L 199 243.309 
L 200 243.75 
L 201 244.184 
L 202 244.609 
L 203 245.027 
L 204 245.438 
L 205 245.84 
L 206 246.234 
L 207 246.621 
L 208 247 
L 209 247.371 
L 210 247.734 
L 211 248.09 
L 212 248.438 
L 213 248.777 
L 214 249.109 
L 215 249.434 
L 216 249.75 
L 217 250.059 
L 218 250.359 
L 219 250.652 
L 220 250.938 
L 221 251.215 
L 222 251.484 
L 223 251.746 
L 224 252 
L 225 252.246 
L 226 252.484 
L 227 252.715 
L 228 252.938 
L 229 253.152 
L 230 253.359 
L 231 253.559 
L 232 253.75 
L 233 253.934 
L 234 254.109 
L 235 254.277 
L 236 254.438 
L 237 254.59 
L 238 254.734 
L 239 254.871 
L 240 255 
L 241 255.121 
L 242 255.234 
L 243 255.34 
L 244 255.438 
L 245 255.527 
L 246 255.609 
L 247 255.684 
L 248 255.75 
L 249 255.809 
L 250 255.859 
L 251 255.902 
L 252 255.938 
L 253 255.965 
L 254 255.984 
L 255 255.996 
" />

</svg>

