<?xml version="1.0" encoding="UTF-8" standalone="no"?>
<!-- Created with Inkscape (http://www.inkscape.org/) -->

<svg
   width="256"
   height="256"
   id="svg4756"
   version="1.1"
   inkscape:version="1.2.2 (b0a8486541, 2022-12-01)"
   viewBox="0 0 256 256"
   sodipodi:docname="bdj4_icon_bpm.svg"
   inkscape:export-filename="/home/bll/s/bdj4/img/bdj4_icon_marquee.png"
   inkscape:export-xdpi="96"
   inkscape:export-ydpi="96"
   xmlns:inkscape="http://www.inkscape.org/namespaces/inkscape"
   xmlns:sodipodi="http://sodipodi.sourceforge.net/DTD/sodipodi-0.dtd"
   xmlns:xlink="http://www.w3.org/1999/xlink"
   xmlns="http://www.w3.org/2000/svg"
   xmlns:svg="http://www.w3.org/2000/svg"
   xmlns:rdf="http://www.w3.org/1999/02/22-rdf-syntax-ns#">
  <defs
     id="defs4758">
    <linearGradient
       inkscape:collect="always"
       id="linearGradient853">
      <stop
         style="stop-color:#e9b117;stop-opacity:1;"
         offset="0"
         id="stop849" />
      <stop
         style="stop-color:#e9b117;stop-opacity:0;"
         offset="1"
         id="stop851" />
    </linearGradient>
    <linearGradient
       inkscape:collect="always"
       xlink:href="#linearGradient853"
       id="linearGradient855"
       x1="19.593622"
       y1="42.477303"
       x2="241.64831"
       y2="42.477303"
       gradientUnits="userSpaceOnUse" />
  </defs>
  <sodipodi:namedview
     id="base"
     pagecolor="#ffffff"
     bordercolor="#666666"
     borderopacity="1.0"
     inkscape:pageopacity="0"
     inkscape:pageshadow="2"
     inkscape:zoom="2.0742188"
     inkscape:cx="113.77778"
     inkscape:cy="127.75894"
     inkscape:current-layer="layer5"
     showgrid="true"
     inkscape:document-units="px"
     inkscape:grid-bbox="true"
     showborder="true"
     inkscape:window-width="1614"
     inkscape:window-height="931"
     inkscape:window-x="349"
     inkscape:window-y="232"
     inkscape:window-maximized="0"
     inkscape:pagecheckerboard="true"
     fit-margin-top="0"
     fit-margin-left="0"
     fit-margin-right="0"
     fit-margin-bottom="0"
     inkscape:showpageshadow="2"
     inkscape:deskcolor="#d1d1d1" />
  <metadata
     id="metadata4761">
    <rdf:RDF />
  </metadata>
  <g
     inkscape:groupmode="layer"
     id="layer5"
     inkscape:label="Background"
     style="display:inline"
     transform="translate(-8.5333405,-8.5333405)">
    <rect
       style="opacity:1;fill:#e7f98b;fill-opacity:0.809974;stroke:none;stroke-width:0;stroke-miterlimit:4;stroke-dasharray:none;stroke-opacity:1"
       id="rect4218"
       width="256"
       height="256"
       x="8.5333405"
       y="8.5333405" />
    <g
       id="g1353">
      <g
         aria-label="♪"
         id="text5956"
         style="font-size:74.6667px;line-height:1.25;letter-spacing:0px;word-spacing:0px;fill:#1d1c6b;stroke-width:1.5">
        <path
           d="m 38.402026,20.389635 h 3.171877 l 0.291666,0.255209 v 1.421875 q 0.984376,1.968751 7.291671,4.265627 8.750004,2.552085 8.750004,7.583337 0,5.32292 -4.447919,8.822921 h -0.145833 l -1.093751,-1.166667 q 2.223959,-1.786459 2.223959,-4.848961 0,-2.552084 -8.312504,-5.140627 -3.354168,-1.531251 -4.265627,-2.479168 v 38.864602 q 0,5.578128 -8.16667,7.218753 h -2.078126 q -8.822921,0 -8.822921,-6.125003 0,-4.776044 7.72917,-5.614586 h 0.838542 q 3.500002,0 6.744795,2.333335 V 20.644844 Z"
           id="path1392" />
      </g>
      <g
         aria-label="♪"
         id="text5956-3"
         style="font-size:74.6667px;line-height:1.25;letter-spacing:0px;word-spacing:0px;display:inline;fill:#1d1c6b;stroke-width:1.5">
        <path
           d="m 147.47991,20.389635 h 3.17187 l 0.29167,0.255209 v 1.421875 q 0.98438,1.968751 7.29167,4.265627 8.75,2.552085 8.75,7.583337 0,5.32292 -4.44791,8.822921 h -0.14584 l -1.09375,-1.166667 q 2.22396,-1.786459 2.22396,-4.848961 0,-2.552084 -8.3125,-5.140627 -3.35417,-1.531251 -4.26563,-2.479168 v 38.864602 q 0,5.578128 -8.16667,7.218753 h -2.07813 q -8.82292,0 -8.82292,-6.125003 0,-4.776044 7.72917,-5.614586 h 0.83855 q 3.5,0 6.74479,2.333335 V 20.644844 Z"
           id="path1395" />
      </g>
      <g
         aria-label="♪"
         id="text5956-7"
         style="font-size:74.6667px;line-height:1.25;letter-spacing:0px;word-spacing:0px;display:inline;fill:#1d1c6b;stroke-width:1.5">
        <path
           d="m 92.940967,20.389635 h 3.171876 l 0.291667,0.255209 v 1.421875 q 0.984375,1.968751 7.29167,4.265627 8.75,2.552085 8.75,7.583337 0,5.32292 -4.44791,8.822921 h -0.14584 l -1.09375,-1.166667 q 2.22396,-1.786459 2.22396,-4.848961 0,-2.552084 -8.3125,-5.140627 -3.354171,-1.531251 -4.26563,-2.479168 v 38.864602 q 0,5.578128 -8.166671,7.218753 h -2.078126 q -8.822921,0 -8.822921,-6.125003 0,-4.776044 7.729171,-5.614586 h 0.838542 q 3.500002,0 6.744795,2.333335 V 20.644844 Z"
           id="path1398" />
      </g>
      <g
         aria-label="."
         id="text1257-3"
         style="font-size:42.6667px;line-height:1.25;letter-spacing:0px;word-spacing:0px;display:inline">
        <path
           d="m 64.976684,47.766753 q 0,-1.578668 0.768001,-2.218668 0.768001,-0.640001 1.834668,-0.640001 1.109334,0 1.877335,0.640001 0.810667,0.64 0.810667,2.218668 0,1.536001 -0.810667,2.218669 -0.768001,0.682667 -1.877335,0.682667 -1.066667,0 -1.834668,-0.682667 -0.768001,-0.682668 -0.768001,-2.218669 z"
           id="path1401" />
      </g>
      <g
         aria-label="."
         id="text1257-6"
         style="font-size:42.6667px;line-height:1.25;letter-spacing:0px;word-spacing:0px;display:inline">
        <path
           d="m 119.51562,47.766753 q 0,-1.578668 0.768,-2.218668 0.768,-0.640001 1.83467,-0.640001 1.10933,0 1.87733,0.640001 0.81067,0.64 0.81067,2.218668 0,1.536001 -0.81067,2.218669 -0.768,0.682667 -1.87733,0.682667 -1.06667,0 -1.83467,-0.682667 -0.768,-0.682668 -0.768,-2.218669 z"
           id="path1404" />
      </g>
    </g>
  </g>
  <g
     id="g1097">
    <g
       id="layer1"
       inkscape:label="Note"
       inkscape:groupmode="layer"
       transform="matrix(0.74065159,0,0,0.74065159,56.932051,200.6433)"
       style="display:inline">
      <text
         xml:space="preserve"
         style="font-style:normal;font-variant:normal;font-weight:normal;font-stretch:normal;font-size:9.45311px;line-height:0%;font-family:'Droid Serif';-inkscape-font-specification:'Droid Serif';text-align:start;letter-spacing:0px;word-spacing:0px;writing-mode:lr-tb;text-anchor:start;fill:#1d1c6b;fill-opacity:1;stroke:none;stroke-width:0.787759px;stroke-linecap:butt;stroke-linejoin:miter;stroke-opacity:1"
         x="-39.012867"
         y="27.35895"
         id="text4173"
         transform="scale(1.1629138,0.85990897)"><tspan
           sodipodi:role="line"
           id="tspan4175"
           x="-39.012867"
           y="27.35895"
           style="font-style:normal;font-variant:normal;font-weight:normal;font-stretch:normal;font-size:302.285px;line-height:125%;font-family:'Droid Serif';-inkscape-font-specification:'Droid Serif';text-align:start;writing-mode:lr-tb;text-anchor:start;fill:#1d1c6b;fill-opacity:1;stroke-width:0.787759px">♫</tspan></text>
    </g>
    <g
       inkscape:groupmode="layer"
       id="layer4"
       inkscape:label="BDJ"
       style="display:inline"
       transform="matrix(0.74065159,0,0,0.74065159,56.932051,58.438192)">
      <g
         id="g39"
         transform="translate(5.5175234,-12.836109)">
        <text
           id="text4150"
           y="161.295"
           x="28.175468"
           style="font-style:normal;font-weight:normal;line-height:0%;font-family:sans-serif;letter-spacing:0px;word-spacing:0px;display:inline;fill:#d71229;fill-opacity:1;stroke:none;stroke-width:1px;stroke-linecap:butt;stroke-linejoin:miter;stroke-opacity:1"
           xml:space="preserve"><tspan
             style="font-style:italic;font-variant:normal;font-weight:bold;font-stretch:normal;font-size:110px;line-height:1.25;font-family:Kinnari;-inkscape-font-specification:'Kinnari Bold Italic';fill:#d71229;fill-opacity:1"
             y="161.295"
             x="28.175468"
             id="tspan4152"
             sodipodi:role="line">BDJ</tspan></text>
        <text
           id="text4150-7"
           y="157.295"
           x="20.175468"
           style="font-style:normal;font-weight:normal;line-height:0%;font-family:sans-serif;letter-spacing:0px;word-spacing:0px;display:inline;fill:#e9b117;fill-opacity:1;stroke:none;stroke-width:1px;stroke-linecap:butt;stroke-linejoin:miter;stroke-opacity:1"
           xml:space="preserve"><tspan
             style="font-style:italic;font-variant:normal;font-weight:bold;font-stretch:normal;font-size:110px;line-height:1.25;font-family:Kinnari;-inkscape-font-specification:'Kinnari Bold Italic';fill:#e9b117;fill-opacity:1"
             y="157.295"
             x="20.175468"
             id="tspan4152-5"
             sodipodi:role="line">BDJ</tspan></text>
        <text
           id="text4150-6"
           y="158.75494"
           x="24.175468"
           style="font-style:normal;font-weight:normal;line-height:0%;font-family:sans-serif;letter-spacing:0px;word-spacing:0px;display:inline;fill:#000000;fill-opacity:1;stroke:none;stroke-width:1px;stroke-linecap:butt;stroke-linejoin:miter;stroke-opacity:1"
           xml:space="preserve"><tspan
             style="font-style:italic;font-variant:normal;font-weight:bold;font-stretch:normal;font-size:110px;line-height:1.25;font-family:Kinnari;-inkscape-font-specification:'Kinnari Bold Italic'"
             y="158.75494"
             x="24.175468"
             id="tspan4152-4"
             sodipodi:role="line">BDJ</tspan></text>
      </g>
    </g>
    <g
       inkscape:groupmode="layer"
       id="layer7"
       inkscape:label="4"
       transform="matrix(0.74065159,0,0,0.74065159,63.252283,64.758424)">
      <text
         xml:space="preserve"
         style="font-style:normal;font-weight:normal;font-size:240px;line-height:1.25;font-family:sans-serif;letter-spacing:0px;word-spacing:0px;fill:#e9b117;fill-opacity:1;stroke:#090102;stroke-width:3;stroke-linecap:butt;stroke-miterlimit:4;stroke-dasharray:none;stroke-opacity:1"
         x="133.18922"
         y="243.63663"
         id="text67795"><tspan
           sodipodi:role="line"
           id="tspan67793"
           x="133.18922"
           y="243.63663"
           style="font-style:italic;font-variant:normal;font-weight:normal;font-stretch:normal;font-size:240px;font-family:'Chancery Uralic';-inkscape-font-specification:'Chancery Uralic Italic';fill:#e9b117;fill-opacity:1;stroke:#090102;stroke-width:3;stroke-linecap:butt;stroke-miterlimit:4;stroke-dasharray:none;stroke-opacity:1">4</tspan></text>
    </g>
  </g>
  <g
     inkscape:groupmode="layer"
     id="g7144"
     inkscape:label="Player" />
</svg>
