<?xml version="1.0" encoding="UTF-8" standalone="no"?>
<!-- Created with Inkscape (http://www.inkscape.org/) -->

<svg
   width="256"
   height="256"
   id="svg4756"
   version="1.1"
   inkscape:version="1.2.2 (b0a8486541, 2022-12-01)"
   viewBox="0 0 256 256"
   sodipodi:docname="bdj4_icon_config.svg"
   inkscape:export-filename="/home/bll/s/bdj4/img/bdj4_icon_marquee.png"
   inkscape:export-xdpi="96"
   inkscape:export-ydpi="96"
   xmlns:inkscape="http://www.inkscape.org/namespaces/inkscape"
   xmlns:sodipodi="http://sodipodi.sourceforge.net/DTD/sodipodi-0.dtd"
   xmlns="http://www.w3.org/2000/svg"
   xmlns:svg="http://www.w3.org/2000/svg"
   xmlns:rdf="http://www.w3.org/1999/02/22-rdf-syntax-ns#">
  <defs
     id="defs4758" />
  <sodipodi:namedview
     id="base"
     pagecolor="#ffffff"
     bordercolor="#666666"
     borderopacity="1.0"
     inkscape:pageopacity="0"
     inkscape:pageshadow="2"
     inkscape:zoom="2.0742188"
     inkscape:cx="128"
     inkscape:cy="127.75894"
     inkscape:current-layer="g75580"
     showgrid="true"
     inkscape:document-units="px"
     inkscape:grid-bbox="true"
     showborder="true"
     inkscape:window-width="1614"
     inkscape:window-height="931"
     inkscape:window-x="140"
     inkscape:window-y="68"
     inkscape:window-maximized="0"
     inkscape:pagecheckerboard="true"
     fit-margin-top="0"
     fit-margin-left="0"
     fit-margin-right="0"
     fit-margin-bottom="0"
     inkscape:showpageshadow="2"
     inkscape:deskcolor="#d1d1d1" />
  <metadata
     id="metadata4761">
    <rdf:RDF />
  </metadata>
  <g
     inkscape:groupmode="layer"
     id="layer5"
     inkscape:label="Background"
     style="display:inline"
     transform="translate(-8.5333405,-8.5333405)">
    <rect
       style="opacity:1;fill:#e7f98b;fill-opacity:0.809974;stroke:none;stroke-width:0;stroke-miterlimit:4;stroke-dasharray:none;stroke-opacity:1"
       id="rect4218"
       width="256"
       height="256"
       x="8.5333405"
       y="8.5333405" />
  </g>
  <g
     id="layer1"
     inkscape:label="Note"
     inkscape:groupmode="layer"
     transform="translate(-8.5333405,183.46666)"
     style="display:inline" />
  <g
     inkscape:groupmode="layer"
     id="layer4"
     inkscape:label="BDJ"
     style="display:inline"
     transform="translate(-8.5333405,-8.5333405)" />
  <g
     inkscape:groupmode="layer"
     id="layer7"
     inkscape:label="4">
    <g
       id="g577"
       transform="matrix(0.77297948,0,0,0.77297948,63.160321,56.968572)">
      <g
         id="layer1-1"
         inkscape:label="Note"
         inkscape:groupmode="layer"
         transform="translate(-8.5333405,183.46666)"
         style="display:inline">
        <g
           aria-label="♫"
           transform="scale(1.1629138,0.85990897)"
           id="text4173"
           style="font-size:9.45311px;line-height:0%;font-family:'Droid Serif';-inkscape-font-specification:'Droid Serif';letter-spacing:0px;word-spacing:0px;fill:#1d1c6b;stroke-width:0.787759px">
          <path
             d="m 73.901209,-193.008 101.991671,29.81522 0.4428,0.5904 V 29.130151 q 0,22.878015 -28.33922,29.077219 h -7.97041 q -31.43882,0 -31.43882,-24.206416 v -0.5904 q 0,-18.597613 26.12522,-21.844815 l 5.7564,-0.4428 q 12.69361,0 24.64922,8.560805 V -133.08236 L 84.233216,-158.02678 V -1.4230697 q 0,20.2212137 -22.140015,28.4868187 l -9.889207,1.180801 h -3.837602 q -31.881622,0 -31.881622,-22.8780152 V 4.3333341 q 0,-18.0072121 25.092017,-23.0256151 l 6.346805,-0.590401 q 13.136408,0 24.944416,9.8892069 V -191.6796 Z"
             style="font-size:302.285px;line-height:125%"
             id="path1777" />
        </g>
      </g>
      <g
         inkscape:groupmode="layer"
         id="layer4-2"
         inkscape:label="BDJ"
         style="display:inline"
         transform="translate(-8.5333405,-8.5333405)">
        <g
           id="g39"
           transform="translate(5.5175234,-12.836109)">
          <g
             aria-label="BDJ"
             id="text4150"
             style="line-height:0%;letter-spacing:0px;word-spacing:0px;display:inline;fill:#d71229;stroke-width:1px">
            <path
               d="m 48.965468,94.964998 q 0,-1.43 -0.66,-2.31 -0.55,-0.99 -2.31,-1.43 -1.65,-0.55 -2.2,-0.55 -0.55,-0.11 -2.86,-0.33 v -2.64 h 29.92 q 25.96,0 25.96,16.060002 0,4.4 -1.87,7.81 -1.87,3.3 -5.5,5.39 -3.52,2.09 -6.38,3.19 -2.75,1.1 -7.04,2.2 8.36,2.64 11.77,6.27 3.41,3.63 3.41,9.9 0,10.67 -8.69,16.72 -8.69,6.05 -23.87,6.05 h -33 v -2.75 q 3.85,-0.55 5.61,-2.09 1.76,-1.54 3.08,-5.83 l 13.53,-49.39 q 1.1,-4.620002 1.1,-6.270002 z m 7.26,62.810002 q 5.17,0 8.91,-2.31 3.85,-2.42 5.61,-6.05 1.87,-3.74 2.64,-7.04 0.88,-3.3 0.88,-6.27 0,-6.05 -3.74,-9.24 -2.64,-2.31 -12.65,-2.75 l -7.26,26.84 q -0.66,2.86 -0.66,3.3 0,3.52 6.27,3.52 z m 2.42,-36.96 q 3.63,-0.11 5.72,-0.33 2.09,-0.22 5.61,-1.21 3.63,-1.1 5.61,-2.86 1.98,-1.76 3.52,-5.39 1.65,-3.63 1.65,-8.69 0,-11.110002 -9.68,-11.110002 -2.64,0 -3.74,0.99 -1.1,0.88 -1.98,3.85 z"
               style="font-style:italic;font-weight:bold;font-size:110px;line-height:1.25;font-family:Kinnari;-inkscape-font-specification:'Kinnari Bold Italic'"
               id="path1752" />
            <path
               d="m 119.8053,95.074998 q 0,-0.99 -0.33,-1.65 -0.22,-0.66 -0.55,-0.99 -0.22,-0.44 -1.1,-0.66 -0.88,-0.33 -1.54,-0.44 -0.55,-0.22 -2.09,-0.44 -1.43,-0.33 -2.42,-0.55 v -2.64 h 31.9 q 15.62,0 24.42,8.03 8.8,7.920002 8.8,22.110002 0,18.7 -14.08,31.13 -13.97,12.32 -34.98,12.32 H 96.485295 v -2.75 q 3.960005,-0.55 5.720005,-2.09 1.76,-1.54 2.97,-5.83 l 13.31,-49.06 q 1.32,-5.390002 1.32,-6.490002 z m 16.61,0.11 -14.19,52.690002 q -1.32,4.95 -1.32,6.05 0,3.63 5.94,3.63 8.69,0 15.4,-4.18 6.71,-4.18 10.56,-11 3.96,-6.93 5.83,-14.85 1.98,-8.03 1.98,-16.5 0,-20.020002 -18.04,-20.020002 -5.06,0 -6.16,4.18 z"
               style="font-style:italic;font-weight:bold;font-size:110px;line-height:1.25;font-family:Kinnari;-inkscape-font-specification:'Kinnari Bold Italic'"
               id="path1754" />
            <path
               d="m 189.54522,160.305 q 0,1.76 -1.21,3.19 -1.21,1.43 -1.21,2.75 0,1.98 2.86,1.98 3.08,0 4.84,-3.63 1.76,-3.52 4.95,-15.84 l 12.65,-47.52 q 1.21,-4.620002 1.21,-6.600002 0,-3.19 -4.62,-3.63 l -3.41,-0.66 v -2.64 h 32.67 v 2.64 q -4.07,0.44 -5.83,2.09 -1.65,1.54 -3.19,5.83 l -13.97,52.910002 q -2.86,10.78 -8.58,15.95 -5.61,5.17 -14.52,5.17 -7.15,0 -11.77,-3.19 -4.73,-3.19 -4.73,-7.92 0,-3.3 1.98,-5.5 1.98,-2.31 4.95,-2.31 2.86,0 4.84,2.09 2.09,1.98 2.09,4.84 z"
               style="font-style:italic;font-weight:bold;font-size:110px;line-height:1.25;font-family:Kinnari;-inkscape-font-specification:'Kinnari Bold Italic'"
               id="path1756" />
          </g>
          <g
             aria-label="BDJ"
             id="text4150-7"
             style="line-height:0%;letter-spacing:0px;word-spacing:0px;display:inline;fill:#e9b117;stroke-width:1px">
            <path
               d="m 40.965468,90.964998 q 0,-1.43 -0.66,-2.31 -0.55,-0.99 -2.31,-1.43 -1.65,-0.55 -2.2,-0.55 -0.55,-0.11 -2.86,-0.33 v -2.64 h 29.92 q 25.96,0 25.96,16.06 0,4.400002 -1.87,7.810002 -1.87,3.3 -5.5,5.39 -3.52,2.09 -6.38,3.19 -2.75,1.1 -7.04,2.2 8.36,2.64 11.77,6.27 3.41,3.63 3.41,9.9 0,10.67 -8.69,16.72 -8.69,6.05 -23.87,6.05 h -33 v -2.75 q 3.85,-0.55 5.61,-2.09 1.76,-1.54 3.08,-5.83 l 13.53,-49.390002 q 1.1,-4.62 1.1,-6.27 z m 7.26,62.810002 q 5.17,0 8.91,-2.31 3.85,-2.42 5.61,-6.05 1.87,-3.74 2.64,-7.04 0.88,-3.3 0.88,-6.27 0,-6.05 -3.74,-9.24 -2.64,-2.31 -12.65,-2.75 l -7.26,26.84 q -0.66,2.86 -0.66,3.3 0,3.52 6.27,3.52 z m 2.42,-36.96 q 3.63,-0.11 5.72,-0.33 2.09,-0.22 5.61,-1.21 3.63,-1.1 5.61,-2.86 1.98,-1.76 3.52,-5.39 1.65,-3.63 1.65,-8.690002 0,-11.11 -9.68,-11.11 -2.64,0 -3.74,0.99 -1.1,0.88 -1.98,3.85 z"
               style="font-style:italic;font-weight:bold;font-size:110px;line-height:1.25;font-family:Kinnari;-inkscape-font-specification:'Kinnari Bold Italic'"
               id="path1727" />
            <path
               d="m 111.8053,91.074998 q 0,-0.99 -0.33,-1.65 -0.22,-0.66 -0.55,-0.99 -0.22,-0.44 -1.1,-0.66 -0.88,-0.33 -1.54,-0.44 -0.55,-0.22 -2.09,-0.44 -1.43,-0.33 -2.42,-0.55 v -2.64 h 31.9 q 15.62,0 24.42,8.03 8.8,7.92 8.8,22.110002 0,18.7 -14.08,31.13 -13.97,12.32 -34.98,12.32 H 88.485295 v -2.75 q 3.96,-0.55 5.72,-2.09 1.76,-1.54 2.97,-5.83 L 110.4853,97.564998 q 1.32,-5.39 1.32,-6.49 z m 16.61,0.11 -14.19,52.690002 q -1.32,4.95 -1.32,6.05 0,3.63 5.94,3.63 8.69,0 15.4,-4.18 6.71,-4.18 10.56,-11 3.96,-6.93 5.83,-14.85 1.98,-8.03 1.98,-16.5 0,-20.020002 -18.04,-20.020002 -5.06,0 -6.16,4.18 z"
               style="font-style:italic;font-weight:bold;font-size:110px;line-height:1.25;font-family:Kinnari;-inkscape-font-specification:'Kinnari Bold Italic'"
               id="path1729" />
            <path
               d="m 181.54522,156.305 q 0,1.76 -1.21,3.19 -1.21,1.43 -1.21,2.75 0,1.98 2.86,1.98 3.08,0 4.84,-3.63 1.76,-3.52 4.95,-15.84 l 12.65,-47.520002 q 1.21,-4.62 1.21,-6.6 0,-3.19 -4.62,-3.63 l -3.41,-0.66 v -2.64 h 32.67 v 2.64 q -4.07,0.44 -5.83,2.09 -1.65,1.54 -3.19,5.83 l -13.97,52.910002 q -2.86,10.78 -8.58,15.95 -5.61,5.17 -14.52,5.17 -7.15,0 -11.77,-3.19 -4.73,-3.19 -4.73,-7.92 0,-3.3 1.98,-5.5 1.98,-2.31 4.95,-2.31 2.86,0 4.84,2.09 2.09,1.98 2.09,4.84 z"
               style="font-style:italic;font-weight:bold;font-size:110px;line-height:1.25;font-family:Kinnari;-inkscape-font-specification:'Kinnari Bold Italic'"
               id="path1731" />
          </g>
          <g
             aria-label="BDJ"
             id="text4150-6"
             style="line-height:0%;letter-spacing:0px;word-spacing:0px;display:inline;stroke-width:1px">
            <path
               d="m 44.965468,92.424944 q 0,-1.43 -0.66,-2.31 -0.55,-0.99 -2.31,-1.43 -1.65,-0.55 -2.2,-0.55 -0.55,-0.11 -2.86,-0.33 v -2.64 h 29.92 q 25.96,0 25.96,16.059996 0,4.4 -1.87,7.81 -1.87,3.3 -5.5,5.39 -3.52,2.09 -6.38,3.19 -2.75,1.1 -7.04,2.2 8.36,2.64 11.77,6.27 3.41,3.63 3.41,9.9 0,10.67 -8.69,16.72 -8.69,6.05 -23.87,6.05 h -33 v -2.75 q 3.85,-0.55 5.61,-2.09 1.76,-1.54 3.08,-5.83 l 13.53,-49.389996 q 1.1,-4.62 1.1,-6.27 z m 7.26,62.809996 q 5.17,0 8.91,-2.31 3.85,-2.42 5.61,-6.05 1.87,-3.74 2.64,-7.04 0.88,-3.3 0.88,-6.27 0,-6.05 -3.74,-9.24 -2.64,-2.31 -12.65,-2.75 l -7.26,26.84 q -0.66,2.86 -0.66,3.3 0,3.52 6.27,3.52 z m 2.42,-36.96 q 3.63,-0.11 5.72,-0.33 2.09,-0.22 5.61,-1.21 3.63,-1.1 5.61,-2.86 1.98,-1.76 3.52,-5.39 1.65,-3.63 1.65,-8.689996 0,-11.11 -9.68,-11.11 -2.64,0 -3.74,0.99 -1.1,0.88 -1.98,3.85 z"
               style="font-style:italic;font-weight:bold;font-size:110px;line-height:1.25;font-family:Kinnari;-inkscape-font-specification:'Kinnari Bold Italic'"
               id="path1702" />
            <path
               d="m 115.8053,92.534944 q 0,-0.99 -0.33,-1.65 -0.22,-0.66 -0.55,-0.99 -0.22,-0.44 -1.1,-0.66 -0.88,-0.33 -1.54,-0.44 -0.55,-0.22 -2.09,-0.44 -1.43,-0.33 -2.42,-0.55 v -2.64 h 31.9 q 15.62,0 24.42,8.03 8.8,7.919996 8.8,22.109996 0,18.7 -14.08,31.13 -13.97,12.32 -34.98,12.32 H 92.485295 v -2.75 q 3.96,-0.55 5.72,-2.09 1.76,-1.54 2.970005,-5.83 l 13.31,-49.059996 q 1.32,-5.39 1.32,-6.49 z m 16.61,0.11 -14.19,52.689996 q -1.32,4.95 -1.32,6.05 0,3.63 5.94,3.63 8.69,0 15.4,-4.18 6.71,-4.18 10.56,-11 3.96,-6.93 5.83,-14.85 1.98,-8.03 1.98,-16.5 0,-20.019996 -18.04,-20.019996 -5.06,0 -6.16,4.18 z"
               style="font-style:italic;font-weight:bold;font-size:110px;line-height:1.25;font-family:Kinnari;-inkscape-font-specification:'Kinnari Bold Italic'"
               id="path1704" />
            <path
               d="m 185.54522,157.76494 q 0,1.76 -1.21,3.19 -1.21,1.43 -1.21,2.75 0,1.98 2.86,1.98 3.08,0 4.84,-3.63 1.76,-3.52 4.95,-15.84 l 12.65,-47.519996 q 1.21,-4.62 1.21,-6.6 0,-3.19 -4.62,-3.63 l -3.41,-0.66 v -2.64 h 32.67 v 2.64 q -4.07,0.44 -5.83,2.09 -1.65,1.54 -3.19,5.83 l -13.97,52.909996 q -2.86,10.78 -8.58,15.95 -5.61,5.17 -14.52,5.17 -7.15,0 -11.77,-3.19 -4.73,-3.19 -4.73,-7.92 0,-3.3 1.98,-5.5 1.98,-2.31 4.95,-2.31 2.86,0 4.84,2.09 2.09,1.98 2.09,4.84 z"
               style="font-style:italic;font-weight:bold;font-size:110px;line-height:1.25;font-family:Kinnari;-inkscape-font-specification:'Kinnari Bold Italic'"
               id="path1706" />
          </g>
        </g>
      </g>
      <g
         inkscape:groupmode="layer"
         id="layer7-7"
         inkscape:label="4">
        <g
           aria-label="4"
           id="text67795"
           style="font-size:240px;line-height:1.25;letter-spacing:0px;word-spacing:0px;fill:#e9b117;stroke:#090102;stroke-width:3">
          <path
             d="m 242.38922,103.23663 q -1.68,6.48 -21.12,91.44 h 19.92 l -8.88,12.48 h -13.92 q -4.08,21.84 -4.08,24.72 0,4.08 2.64,8.88 l -0.48,1.68 q -12.72,2.64 -19.92,5.76 -1.92,-0.24 -5.04,-2.64 l 10.08,-38.4 q -1.92,0.24 -5.28,0.24 -7.68,0 -23.28,-0.48 -15.6,-0.48 -23.28,-0.48 6.24,-12.72 31.44,-43.44 10.56,-12.96 30.24,-35.28 l 9.84,-11.28 q 1.44,-1.92 4.32,-5.04 0.72,-0.72 16.8,-8.16 z m -21.6,23.28 q -18.24,22.08 -54.24,67.2 31.68,0.96 31.68,0.96 h 6.48 z"
             style="font-style:italic;font-family:'Chancery Uralic';-inkscape-font-specification:'Chancery Uralic Italic'"
             id="path1681" />
        </g>
      </g>
    </g>
  </g>
  <g
     inkscape:groupmode="layer"
     id="g75580"
     inkscape:label="Configure"
     style="display:inline"
     transform="translate(-8.5333405,-8.5333405)">
    <path
       style="opacity:0.996;fill:#1d1c6b;fill-opacity:1;stroke:#1d1c6b;stroke-width:2.473;stroke-linecap:round;stroke-miterlimit:4;stroke-dasharray:none;stroke-opacity:1"
       d="m 54.811072,107.31696 -0.242125,-7.25449 -4.168209,-1.621093 c -2.292513,-0.891602 -5.387261,-2.164412 -6.877214,-2.828465 -2.693286,-1.200361 -2.73698,-1.177525 -7.529127,3.93488 l -4.82012,5.142248 -4.350211,-4.748859 -4.35021,-4.748862 4.854447,-5.178864 4.854445,-5.178867 -2.215471,-4.735137 c -1.21851,-2.604326 -2.43007,-5.619834 -2.692355,-6.701128 -0.443842,-1.829769 -0.973277,-1.965994 -7.640884,-1.965994 h -7.164002 v -6.705496 -6.705494 l 7.152072,-0.259673 7.152073,-0.259677 1.524022,-4.672356 c 0.838212,-2.569798 2.121535,-5.592037 2.85183,-6.716088 1.286382,-1.979962 1.171293,-2.213977 -3.688655,-7.500373 l -5.016464,-5.456647 4.671908,-4.348356 4.671906,-4.348359 4.885287,5.211766 c 4.179278,4.458577 5.073259,5.043582 6.185987,4.047995 0.715386,-0.640073 3.642558,-2.076769 6.504824,-3.192652 l 5.204121,-2.028877 0.242125,-7.292265 0.242125,-7.292262 h 6.218599 6.2186 v 7.496959 7.49696 l 3.542977,1.141121 c 1.948639,0.627616 4.881312,1.8755 6.517054,2.773073 l 2.974074,1.631956 5.223688,-5.016427 5.223691,-5.016425 4.288807,4.623675 4.288813,4.623675 -4.825877,5.25753 -4.825871,5.257535 1.646578,3.064494 c 0.905617,1.685475 2.113131,4.783324 2.683367,6.884109 l 1.036794,3.819608 h 6.953999 6.954 v 6.740485 6.740486 h -7.02131 -7.021306 l -0.999875,3.370244 c -0.549931,1.853631 -1.782492,4.904066 -2.739025,6.778737 l -1.739148,3.408495 4.966892,4.827384 4.966886,4.827381 -4.136872,4.571047 c -2.275278,2.514073 -4.45478,4.571043 -4.843341,4.571043 -0.388561,0 -2.725974,-2.05909 -5.194257,-4.575753 l -4.487783,-4.575751 -5.399788,2.328924 c -2.969881,1.28091 -5.992295,2.328926 -6.716477,2.328926 -1.096557,0 -1.31669,1.277184 -1.31669,7.639214 v 7.63922 h -6.2186 -6.218599 z M 70.408141,84.565214 C 75.313742,82.060763 79.399396,77.6965 81.203237,73.033976 82.79476,68.920235 82.884571,59.79215 81.371811,55.900345 76.843988,44.25181 63.059025,38.480687 52.367514,43.757596 c -13.12792,6.479425 -17.199327,22.251292 -8.80639,34.114333 5.98585,8.46074 17.676156,11.375273 26.847017,6.693285 z"
       id="path1141" />
  </g>
  <g
     inkscape:groupmode="layer"
     id="g40506"
     inkscape:label="Manage"
     style="display:none"
     transform="translate(-8.5333405,-8.5333405)">
    <text
       xml:space="preserve"
       style="font-style:normal;font-weight:normal;font-size:53.3333px;line-height:0%;font-family:sans-serif;letter-spacing:0px;word-spacing:0px;fill:#e9b117;fill-opacity:1;stroke:#000000;stroke-width:2;stroke-linecap:butt;stroke-linejoin:miter;stroke-miterlimit:4;stroke-dasharray:none;stroke-opacity:1"
       x="18.042906"
       y="56.727303"
       id="text40504"
       transform="scale(1.0452636,0.95669648)"><tspan
         sodipodi:role="line"
         id="tspan40502"
         x="18.042906"
         y="56.727303"
         style="font-style:normal;font-variant:normal;font-weight:bold;font-stretch:normal;font-size:53.3333px;line-height:1.25;font-family:Roboto;-inkscape-font-specification:'Roboto Bold';stroke:#000000;stroke-width:2;stroke-miterlimit:4;stroke-dasharray:none;stroke-opacity:1">MANAGE</tspan></text>
  </g>
</svg>
