<?xml version="1.0" encoding="UTF-8" standalone="no"?>
<!-- Created with Inkscape (http://www.inkscape.org/) -->

<svg
   width="256"
   height="256"
   id="svg4756"
   version="1.1"
   inkscape:version="1.2.2 (b0a8486541, 2022-12-01)"
   viewBox="0 0 256 256"
   sodipodi:docname="bdj4_icon_help.svg"
   inkscape:export-filename="/home/bll/s/bdj4/img/bdj4_icon_marquee.png"
   inkscape:export-xdpi="96"
   inkscape:export-ydpi="96"
   xmlns:inkscape="http://www.inkscape.org/namespaces/inkscape"
   xmlns:sodipodi="http://sodipodi.sourceforge.net/DTD/sodipodi-0.dtd"
   xmlns:xlink="http://www.w3.org/1999/xlink"
   xmlns="http://www.w3.org/2000/svg"
   xmlns:svg="http://www.w3.org/2000/svg"
   xmlns:rdf="http://www.w3.org/1999/02/22-rdf-syntax-ns#">
  <defs
     id="defs4758">
    <linearGradient
       inkscape:collect="always"
       id="linearGradient853">
      <stop
         style="stop-color:#e9b117;stop-opacity:1;"
         offset="0"
         id="stop849" />
      <stop
         style="stop-color:#e9b117;stop-opacity:0;"
         offset="1"
         id="stop851" />
    </linearGradient>
    <linearGradient
       inkscape:collect="always"
       xlink:href="#linearGradient853"
       id="linearGradient855"
       x1="19.593622"
       y1="42.477303"
       x2="241.64831"
       y2="42.477303"
       gradientUnits="userSpaceOnUse" />
  </defs>
  <sodipodi:namedview
     id="base"
     pagecolor="#ffffff"
     bordercolor="#666666"
     borderopacity="1.0"
     inkscape:pageopacity="0"
     inkscape:pageshadow="2"
     inkscape:zoom="2.671875"
     inkscape:cx="127.81287"
     inkscape:cy="123.50877"
     inkscape:current-layer="g7144"
     showgrid="true"
     inkscape:document-units="px"
     inkscape:grid-bbox="true"
     showborder="true"
     inkscape:window-width="1614"
     inkscape:window-height="931"
     inkscape:window-x="814"
     inkscape:window-y="361"
     inkscape:window-maximized="0"
     inkscape:pagecheckerboard="true"
     fit-margin-top="0"
     fit-margin-left="0"
     fit-margin-right="0"
     fit-margin-bottom="0"
     inkscape:showpageshadow="2"
     inkscape:deskcolor="#d1d1d1" />
  <metadata
     id="metadata4761">
    <rdf:RDF />
  </metadata>
  <g
     inkscape:groupmode="layer"
     id="layer5"
     inkscape:label="Background"
     style="display:inline"
     transform="translate(-8.5333405,-8.5333405)">
    <rect
       style="opacity:1;fill:#e7f98b;fill-opacity:0.809974;stroke:none;stroke-width:0;stroke-miterlimit:4;stroke-dasharray:none;stroke-opacity:1"
       id="rect4218"
       width="256"
       height="256"
       x="8.5333405"
       y="8.5333405" />
  </g>
  <g
     id="layer1"
     inkscape:label="Note"
     inkscape:groupmode="layer"
     transform="translate(-8.5333405,183.46666)"
     style="display:inline" />
  <g
     inkscape:groupmode="layer"
     id="layer4"
     inkscape:label="BDJ"
     style="display:inline"
     transform="translate(-8.5333405,-8.5333405)" />
  <g
     inkscape:groupmode="layer"
     id="layer7"
     inkscape:label="4">
    <g
       id="g577"
       transform="matrix(0.77297948,0,0,0.77297948,57.771479,55.737458)">
      <g
         id="layer1-5"
         inkscape:label="Note"
         inkscape:groupmode="layer"
         transform="translate(-8.5333405,183.46666)"
         style="display:inline">
        <g
           aria-label="♫"
           transform="scale(1.1629138,0.85990897)"
           id="text4173"
           style="font-size:9.45311px;line-height:0%;font-family:'Droid Serif';-inkscape-font-specification:'Droid Serif';letter-spacing:0px;word-spacing:0px;fill:#1d1c6b;stroke-width:0.787759px">
          <path
             d="m 73.901209,-193.008 101.991671,29.81522 0.4428,0.5904 V 29.130151 q 0,22.878015 -28.33922,29.077219 h -7.97041 q -31.43882,0 -31.43882,-24.206416 v -0.5904 q 0,-18.597613 26.12522,-21.844815 l 5.7564,-0.4428 q 12.69361,0 24.64922,8.560805 V -133.08236 L 84.233216,-158.02678 V -1.4230697 q 0,20.2212137 -22.140015,28.4868187 l -9.889207,1.180801 h -3.837602 q -31.881622,0 -31.881622,-22.8780152 V 4.3333341 q 0,-18.0072121 25.092017,-23.0256151 l 6.346805,-0.590401 q 13.136408,0 24.944416,9.8892069 V -191.6796 Z"
             style="font-size:302.285px;line-height:125%"
             id="path1777" />
        </g>
      </g>
      <g
         inkscape:groupmode="layer"
         id="layer4-3"
         inkscape:label="BDJ"
         style="display:inline"
         transform="translate(-8.5333405,-8.5333405)">
        <g
           id="g39"
           transform="translate(5.5175234,-12.836109)">
          <g
             aria-label="BDJ"
             id="text4150"
             style="line-height:0%;letter-spacing:0px;word-spacing:0px;display:inline;fill:#d71229;stroke-width:1px">
            <path
               d="m 48.965468,94.964998 q 0,-1.43 -0.66,-2.31 -0.55,-0.99 -2.31,-1.43 -1.65,-0.55 -2.2,-0.55 -0.55,-0.11 -2.86,-0.33 v -2.64 h 29.92 q 25.96,0 25.96,16.060002 0,4.4 -1.87,7.81 -1.87,3.3 -5.5,5.39 -3.52,2.09 -6.38,3.19 -2.75,1.1 -7.04,2.2 8.36,2.64 11.77,6.27 3.41,3.63 3.41,9.9 0,10.67 -8.69,16.72 -8.69,6.05 -23.87,6.05 h -33 v -2.75 q 3.85,-0.55 5.61,-2.09 1.76,-1.54 3.08,-5.83 l 13.53,-49.39 q 1.1,-4.620002 1.1,-6.270002 z m 7.26,62.810002 q 5.17,0 8.91,-2.31 3.85,-2.42 5.61,-6.05 1.87,-3.74 2.64,-7.04 0.88,-3.3 0.88,-6.27 0,-6.05 -3.74,-9.24 -2.64,-2.31 -12.65,-2.75 l -7.26,26.84 q -0.66,2.86 -0.66,3.3 0,3.52 6.27,3.52 z m 2.42,-36.96 q 3.63,-0.11 5.72,-0.33 2.09,-0.22 5.61,-1.21 3.63,-1.1 5.61,-2.86 1.98,-1.76 3.52,-5.39 1.65,-3.63 1.65,-8.69 0,-11.110002 -9.68,-11.110002 -2.64,0 -3.74,0.99 -1.1,0.88 -1.98,3.85 z"
               style="font-style:italic;font-weight:bold;font-size:110px;line-height:1.25;font-family:Kinnari;-inkscape-font-specification:'Kinnari Bold Italic'"
               id="path1752" />
            <path
               d="m 119.8053,95.074998 q 0,-0.99 -0.33,-1.65 -0.22,-0.66 -0.55,-0.99 -0.22,-0.44 -1.1,-0.66 -0.88,-0.33 -1.54,-0.44 -0.55,-0.22 -2.09,-0.44 -1.43,-0.33 -2.42,-0.55 v -2.64 h 31.9 q 15.62,0 24.42,8.03 8.8,7.920002 8.8,22.110002 0,18.7 -14.08,31.13 -13.97,12.32 -34.98,12.32 H 96.485295 v -2.75 q 3.960005,-0.55 5.720005,-2.09 1.76,-1.54 2.97,-5.83 l 13.31,-49.06 q 1.32,-5.390002 1.32,-6.490002 z m 16.61,0.11 -14.19,52.690002 q -1.32,4.95 -1.32,6.05 0,3.63 5.94,3.63 8.69,0 15.4,-4.18 6.71,-4.18 10.56,-11 3.96,-6.93 5.83,-14.85 1.98,-8.03 1.98,-16.5 0,-20.020002 -18.04,-20.020002 -5.06,0 -6.16,4.18 z"
               style="font-style:italic;font-weight:bold;font-size:110px;line-height:1.25;font-family:Kinnari;-inkscape-font-specification:'Kinnari Bold Italic'"
               id="path1754" />
            <path
               d="m 189.54522,160.305 q 0,1.76 -1.21,3.19 -1.21,1.43 -1.21,2.75 0,1.98 2.86,1.98 3.08,0 4.84,-3.63 1.76,-3.52 4.95,-15.84 l 12.65,-47.52 q 1.21,-4.620002 1.21,-6.600002 0,-3.19 -4.62,-3.63 l -3.41,-0.66 v -2.64 h 32.67 v 2.64 q -4.07,0.44 -5.83,2.09 -1.65,1.54 -3.19,5.83 l -13.97,52.910002 q -2.86,10.78 -8.58,15.95 -5.61,5.17 -14.52,5.17 -7.15,0 -11.77,-3.19 -4.73,-3.19 -4.73,-7.92 0,-3.3 1.98,-5.5 1.98,-2.31 4.95,-2.31 2.86,0 4.84,2.09 2.09,1.98 2.09,4.84 z"
               style="font-style:italic;font-weight:bold;font-size:110px;line-height:1.25;font-family:Kinnari;-inkscape-font-specification:'Kinnari Bold Italic'"
               id="path1756" />
          </g>
          <g
             aria-label="BDJ"
             id="text4150-7"
             style="line-height:0%;letter-spacing:0px;word-spacing:0px;display:inline;fill:#e9b117;stroke-width:1px">
            <path
               d="m 40.965468,90.964998 q 0,-1.43 -0.66,-2.31 -0.55,-0.99 -2.31,-1.43 -1.65,-0.55 -2.2,-0.55 -0.55,-0.11 -2.86,-0.33 v -2.64 h 29.92 q 25.96,0 25.96,16.06 0,4.400002 -1.87,7.810002 -1.87,3.3 -5.5,5.39 -3.52,2.09 -6.38,3.19 -2.75,1.1 -7.04,2.2 8.36,2.64 11.77,6.27 3.41,3.63 3.41,9.9 0,10.67 -8.69,16.72 -8.69,6.05 -23.87,6.05 h -33 v -2.75 q 3.85,-0.55 5.61,-2.09 1.76,-1.54 3.08,-5.83 l 13.53,-49.390002 q 1.1,-4.62 1.1,-6.27 z m 7.26,62.810002 q 5.17,0 8.91,-2.31 3.85,-2.42 5.61,-6.05 1.87,-3.74 2.64,-7.04 0.88,-3.3 0.88,-6.27 0,-6.05 -3.74,-9.24 -2.64,-2.31 -12.65,-2.75 l -7.26,26.84 q -0.66,2.86 -0.66,3.3 0,3.52 6.27,3.52 z m 2.42,-36.96 q 3.63,-0.11 5.72,-0.33 2.09,-0.22 5.61,-1.21 3.63,-1.1 5.61,-2.86 1.98,-1.76 3.52,-5.39 1.65,-3.63 1.65,-8.690002 0,-11.11 -9.68,-11.11 -2.64,0 -3.74,0.99 -1.1,0.88 -1.98,3.85 z"
               style="font-style:italic;font-weight:bold;font-size:110px;line-height:1.25;font-family:Kinnari;-inkscape-font-specification:'Kinnari Bold Italic'"
               id="path1727" />
            <path
               d="m 111.8053,91.074998 q 0,-0.99 -0.33,-1.65 -0.22,-0.66 -0.55,-0.99 -0.22,-0.44 -1.1,-0.66 -0.88,-0.33 -1.54,-0.44 -0.55,-0.22 -2.09,-0.44 -1.43,-0.33 -2.42,-0.55 v -2.64 h 31.9 q 15.62,0 24.42,8.03 8.8,7.92 8.8,22.110002 0,18.7 -14.08,31.13 -13.97,12.32 -34.98,12.32 H 88.485295 v -2.75 q 3.96,-0.55 5.72,-2.09 1.76,-1.54 2.97,-5.83 L 110.4853,97.564998 q 1.32,-5.39 1.32,-6.49 z m 16.61,0.11 -14.19,52.690002 q -1.32,4.95 -1.32,6.05 0,3.63 5.94,3.63 8.69,0 15.4,-4.18 6.71,-4.18 10.56,-11 3.96,-6.93 5.83,-14.85 1.98,-8.03 1.98,-16.5 0,-20.020002 -18.04,-20.020002 -5.06,0 -6.16,4.18 z"
               style="font-style:italic;font-weight:bold;font-size:110px;line-height:1.25;font-family:Kinnari;-inkscape-font-specification:'Kinnari Bold Italic'"
               id="path1729" />
            <path
               d="m 181.54522,156.305 q 0,1.76 -1.21,3.19 -1.21,1.43 -1.21,2.75 0,1.98 2.86,1.98 3.08,0 4.84,-3.63 1.76,-3.52 4.95,-15.84 l 12.65,-47.520002 q 1.21,-4.62 1.21,-6.6 0,-3.19 -4.62,-3.63 l -3.41,-0.66 v -2.64 h 32.67 v 2.64 q -4.07,0.44 -5.83,2.09 -1.65,1.54 -3.19,5.83 l -13.97,52.910002 q -2.86,10.78 -8.58,15.95 -5.61,5.17 -14.52,5.17 -7.15,0 -11.77,-3.19 -4.73,-3.19 -4.73,-7.92 0,-3.3 1.98,-5.5 1.98,-2.31 4.95,-2.31 2.86,0 4.84,2.09 2.09,1.98 2.09,4.84 z"
               style="font-style:italic;font-weight:bold;font-size:110px;line-height:1.25;font-family:Kinnari;-inkscape-font-specification:'Kinnari Bold Italic'"
               id="path1731" />
          </g>
          <g
             aria-label="BDJ"
             id="text4150-6"
             style="line-height:0%;letter-spacing:0px;word-spacing:0px;display:inline;stroke-width:1px">
            <path
               d="m 44.965468,92.424944 q 0,-1.43 -0.66,-2.31 -0.55,-0.99 -2.31,-1.43 -1.65,-0.55 -2.2,-0.55 -0.55,-0.11 -2.86,-0.33 v -2.64 h 29.92 q 25.96,0 25.96,16.059996 0,4.4 -1.87,7.81 -1.87,3.3 -5.5,5.39 -3.52,2.09 -6.38,3.19 -2.75,1.1 -7.04,2.2 8.36,2.64 11.77,6.27 3.41,3.63 3.41,9.9 0,10.67 -8.69,16.72 -8.69,6.05 -23.87,6.05 h -33 v -2.75 q 3.85,-0.55 5.61,-2.09 1.76,-1.54 3.08,-5.83 l 13.53,-49.389996 q 1.1,-4.62 1.1,-6.27 z m 7.26,62.809996 q 5.17,0 8.91,-2.31 3.85,-2.42 5.61,-6.05 1.87,-3.74 2.64,-7.04 0.88,-3.3 0.88,-6.27 0,-6.05 -3.74,-9.24 -2.64,-2.31 -12.65,-2.75 l -7.26,26.84 q -0.66,2.86 -0.66,3.3 0,3.52 6.27,3.52 z m 2.42,-36.96 q 3.63,-0.11 5.72,-0.33 2.09,-0.22 5.61,-1.21 3.63,-1.1 5.61,-2.86 1.98,-1.76 3.52,-5.39 1.65,-3.63 1.65,-8.689996 0,-11.11 -9.68,-11.11 -2.64,0 -3.74,0.99 -1.1,0.88 -1.98,3.85 z"
               style="font-style:italic;font-weight:bold;font-size:110px;line-height:1.25;font-family:Kinnari;-inkscape-font-specification:'Kinnari Bold Italic'"
               id="path1702" />
            <path
               d="m 115.8053,92.534944 q 0,-0.99 -0.33,-1.65 -0.22,-0.66 -0.55,-0.99 -0.22,-0.44 -1.1,-0.66 -0.88,-0.33 -1.54,-0.44 -0.55,-0.22 -2.09,-0.44 -1.43,-0.33 -2.42,-0.55 v -2.64 h 31.9 q 15.62,0 24.42,8.03 8.8,7.919996 8.8,22.109996 0,18.7 -14.08,31.13 -13.97,12.32 -34.98,12.32 H 92.485295 v -2.75 q 3.96,-0.55 5.72,-2.09 1.76,-1.54 2.970005,-5.83 l 13.31,-49.059996 q 1.32,-5.39 1.32,-6.49 z m 16.61,0.11 -14.19,52.689996 q -1.32,4.95 -1.32,6.05 0,3.63 5.94,3.63 8.69,0 15.4,-4.18 6.71,-4.18 10.56,-11 3.96,-6.93 5.83,-14.85 1.98,-8.03 1.98,-16.5 0,-20.019996 -18.04,-20.019996 -5.06,0 -6.16,4.18 z"
               style="font-style:italic;font-weight:bold;font-size:110px;line-height:1.25;font-family:Kinnari;-inkscape-font-specification:'Kinnari Bold Italic'"
               id="path1704" />
            <path
               d="m 185.54522,157.76494 q 0,1.76 -1.21,3.19 -1.21,1.43 -1.21,2.75 0,1.98 2.86,1.98 3.08,0 4.84,-3.63 1.76,-3.52 4.95,-15.84 l 12.65,-47.519996 q 1.21,-4.62 1.21,-6.6 0,-3.19 -4.62,-3.63 l -3.41,-0.66 v -2.64 h 32.67 v 2.64 q -4.07,0.44 -5.83,2.09 -1.65,1.54 -3.19,5.83 l -13.97,52.909996 q -2.86,10.78 -8.58,15.95 -5.61,5.17 -14.52,5.17 -7.15,0 -11.77,-3.19 -4.73,-3.19 -4.73,-7.92 0,-3.3 1.98,-5.5 1.98,-2.31 4.95,-2.31 2.86,0 4.84,2.09 2.09,1.98 2.09,4.84 z"
               style="font-style:italic;font-weight:bold;font-size:110px;line-height:1.25;font-family:Kinnari;-inkscape-font-specification:'Kinnari Bold Italic'"
               id="path1706" />
          </g>
        </g>
      </g>
      <g
         inkscape:groupmode="layer"
         id="layer7-5"
         inkscape:label="4">
        <g
           aria-label="4"
           id="text67795"
           style="font-size:240px;line-height:1.25;letter-spacing:0px;word-spacing:0px;fill:#e9b117;stroke:#090102;stroke-width:3">
          <path
             d="m 242.38922,103.23663 q -1.68,6.48 -21.12,91.44 h 19.92 l -8.88,12.48 h -13.92 q -4.08,21.84 -4.08,24.72 0,4.08 2.64,8.88 l -0.48,1.68 q -12.72,2.64 -19.92,5.76 -1.92,-0.24 -5.04,-2.64 l 10.08,-38.4 q -1.92,0.24 -5.28,0.24 -7.68,0 -23.28,-0.48 -15.6,-0.48 -23.28,-0.48 6.24,-12.72 31.44,-43.44 10.56,-12.96 30.24,-35.28 l 9.84,-11.28 q 1.44,-1.92 4.32,-5.04 0.72,-0.72 16.8,-8.16 z m -21.6,23.28 q -18.24,22.08 -54.24,67.2 31.68,0.96 31.68,0.96 h 6.48 z"
             style="font-style:italic;font-family:'Chancery Uralic';-inkscape-font-specification:'Chancery Uralic Italic'"
             id="path1681" />
        </g>
      </g>
    </g>
  </g>
  <g
     inkscape:groupmode="layer"
     id="g7144"
     inkscape:label="Manage">
    <g
       id="g1425">
      <circle
         style="opacity:0.996;fill:none;fill-opacity:1;stroke:#1d1c6b;stroke-width:4.74456;stroke-linecap:round;stroke-dasharray:none"
         id="path521"
         cx="53.777584"
         cy="53.467903"
         r="39.225708" />
      <g
         aria-label="i"
         id="text1516"
         style="font-size:71.4672px;line-height:1.25;letter-spacing:0px;word-spacing:0px;fill:#1d1c6b;stroke:#1d1c6b;stroke-width:0.744449">
        <path
           d="m 53.491716,35.172303 q -1.715213,0 -2.930155,-1.000541 -1.143476,-1.000541 -1.143476,-3.430426 0,-2.501352 1.143476,-3.430426 1.214942,-1.00054 2.930155,-1.00054 1.643746,0 2.858688,1.00054 1.214942,0.929074 1.214942,3.430426 0,2.429885 -1.214942,3.430426 -1.214942,1.000541 -2.858688,1.000541 z m -9.862474,45.45314 V 77.62382 h 0.929074 q 2.358417,0 4.07363,-0.786139 1.78668,-0.857607 1.78668,-4.002163 V 50.180415 q 0,-3.144557 -1.78668,-4.002163 -1.715213,-0.857607 -4.07363,-0.857607 h -0.214402 v -3.001622 h 12.792629 v 30.159159 q 0,3.358958 1.715213,4.288032 1.715213,0.857606 4.145098,0.857606 h 0.929073 v 3.001623 z"
           style="font-family:'Noto Serif';-inkscape-font-specification:'Noto Serif'"
           id="path1419" />
      </g>
    </g>
  </g>
</svg>
