<?xml version="1.0" encoding="UTF-8" standalone="no"?>
<svg
   width="1024"
   height="1024"
   viewBox="-304 -304 1024 1024"
   version="1.1"
   id="svg6"
   sodipodi:docname="macos_icon_bpm.svg"
   xml:space="preserve"
   inkscape:version="1.2.2 (b0a8486541, 2022-12-01)"
   xmlns:inkscape="http://www.inkscape.org/namespaces/inkscape"
   xmlns:sodipodi="http://sodipodi.sourceforge.net/DTD/sodipodi-0.dtd"
   xmlns="http://www.w3.org/2000/svg"
   xmlns:svg="http://www.w3.org/2000/svg"
   xmlns:rdf="http://www.w3.org/1999/02/22-rdf-syntax-ns#"
   xmlns:cc="http://creativecommons.org/ns#"
   xmlns:dc="http://purl.org/dc/elements/1.1/"><defs
     id="defs10" /><sodipodi:namedview
     id="namedview8"
     pagecolor="#ffffff"
     bordercolor="#666666"
     borderopacity="1.0"
     inkscape:showpageshadow="2"
     inkscape:pageopacity="0.0"
     inkscape:pagecheckerboard="true"
     inkscape:deskcolor="#d1d1d1"
     showgrid="false"
     inkscape:zoom="1.065"
     inkscape:cx="501.40845"
     inkscape:cy="511.73709"
     inkscape:window-width="1969"
     inkscape:window-height="1099"
     inkscape:window-x="379"
     inkscape:window-y="54"
     inkscape:window-maximized="0"
     inkscape:current-layer="svg6" /><title
     id="title2">Squircle: x to 4th plus y to 4th equals radius to 4th</title><path
     fill="none"
     stroke="#000000"
     stroke-width="5.61112"
     d="m 208,608 c 175.27778,0 272.71708,0 336.35861,-63.64139 C 608,480.71708 608,383.27778 608,208 608,32.722222 608,-64.71708 544.35861,-128.35861 480.71708,-192 383.27778,-192 208,-192 c -175.277778,0 -272.71708,0 -336.35861,63.64139 C -192,-64.71708 -192,32.722222 -192,208 c 0,175.27778 0,272.71708 63.64139,336.35861 C -64.71708,608 32.722222,608 208,608 Z"
     id="path4"
     style="fill:#e7f98b;fill-opacity:1;stroke:none;stroke-opacity:1" /><metadata
     id="metadata1535"><rdf:RDF><cc:Work
         rdf:about=""><dc:title>Squircle: x to 4th plus y to 4th equals radius to 4th</dc:title></cc:Work></rdf:RDF></metadata><g
     id="g523"
     inkscape:label="Main"
     transform="matrix(0.78017441,0,0,0.78017441,150.47463,131.08695)"><g
       id="layer1"
       inkscape:label="Note"
       transform="matrix(2.9568089,0,0,2.9568089,-193.93663,363.74574)"
       style="display:inline"><g
         aria-label="♫"
         transform="scale(1.1629138,0.85990897)"
         id="text4173"
         style="font-size:9.45311px;line-height:0%;font-family:'Droid Serif';-inkscape-font-specification:'Droid Serif';letter-spacing:0px;word-spacing:0px;fill:#1d1c6b;stroke-width:0.787759px"><path
           d="m 73.901209,-193.008 101.991671,29.81522 0.4428,0.5904 V 29.130151 q 0,22.878015 -28.33922,29.077219 h -7.97041 q -31.43882,0 -31.43882,-24.206416 v -0.5904 q 0,-18.597613 26.12522,-21.844815 l 5.7564,-0.4428 q 12.69361,0 24.64922,8.560805 V -133.08236 L 84.233216,-158.02678 V -1.4230697 q 0,20.2212137 -22.140015,28.4868187 l -9.889207,1.180801 h -3.837602 q -31.881622,0 -31.881622,-22.8780152 V 4.3333341 q 0,-18.0072121 25.092017,-23.0256151 l 6.346805,-0.590401 q 13.136408,0 24.944416,9.8892069 V -191.6796 Z"
           style="font-size:302.285px;line-height:125%"
           id="path858" /></g></g><g
       id="layer4"
       inkscape:label="BDJ"
       style="display:inline"
       transform="matrix(2.9568089,0,0,2.9568089,-198.02759,-202.57564)"><g
         id="g39"
         transform="translate(9.7343909,-6.6473806)"><g
           aria-label="BDJ"
           id="text4150"
           style="line-height:0%;letter-spacing:0px;word-spacing:0px;display:inline;fill:#d71229;stroke-width:1px"><path
             d="m 48.965468,94.964998 q 0,-1.43 -0.66,-2.31 -0.55,-0.99 -2.31,-1.43 -1.65,-0.55 -2.2,-0.55 -0.55,-0.11 -2.86,-0.33 v -2.64 h 29.92 q 25.96,0 25.96,16.060002 0,4.4 -1.87,7.81 -1.87,3.3 -5.5,5.39 -3.52,2.09 -6.38,3.19 -2.75,1.1 -7.04,2.2 8.36,2.64 11.77,6.27 3.41,3.63 3.41,9.9 0,10.67 -8.69,16.72 -8.69,6.05 -23.87,6.05 h -33 v -2.75 q 3.85,-0.55 5.61,-2.09 1.76,-1.54 3.08,-5.83 l 13.53,-49.39 q 1.1,-4.620002 1.1,-6.270002 z m 7.26,62.810002 q 5.17,0 8.91,-2.31 3.85,-2.42 5.61,-6.05 1.87,-3.74 2.64,-7.04 0.88,-3.3 0.88,-6.27 0,-6.05 -3.74,-9.24 -2.64,-2.31 -12.65,-2.75 l -7.26,26.84 q -0.66,2.86 -0.66,3.3 0,3.52 6.27,3.52 z m 2.42,-36.96 q 3.63,-0.11 5.72,-0.33 2.09,-0.22 5.61,-1.21 3.63,-1.1 5.61,-2.86 1.98,-1.76 3.52,-5.39 1.65,-3.63 1.65,-8.69 0,-11.110002 -9.68,-11.110002 -2.64,0 -3.74,0.99 -1.1,0.88 -1.98,3.85 z"
             style="font-style:italic;font-weight:bold;font-size:110px;line-height:1.25;font-family:Kinnari;-inkscape-font-specification:'Kinnari Bold Italic'"
             id="path879" /><path
             d="m 119.8053,95.074998 q 0,-0.99 -0.33,-1.65 -0.22,-0.66 -0.55,-0.99 -0.22,-0.44 -1.1,-0.66 -0.88,-0.33 -1.54,-0.44 -0.55,-0.22 -2.09,-0.44 -1.43,-0.33 -2.42,-0.55 v -2.64 h 31.9 q 15.62,0 24.42,8.03 8.8,7.920002 8.8,22.110002 0,18.7 -14.08,31.13 -13.97,12.32 -34.98,12.32 H 96.485295 v -2.75 q 3.960005,-0.55 5.720005,-2.09 1.76,-1.54 2.97,-5.83 l 13.31,-49.06 q 1.32,-5.390002 1.32,-6.490002 z m 16.61,0.11 -14.19,52.690002 q -1.32,4.95 -1.32,6.05 0,3.63 5.94,3.63 8.69,0 15.4,-4.18 6.71,-4.18 10.56,-11 3.96,-6.93 5.83,-14.85 1.98,-8.03 1.98,-16.5 0,-20.020002 -18.04,-20.020002 -5.06,0 -6.16,4.18 z"
             style="font-style:italic;font-weight:bold;font-size:110px;line-height:1.25;font-family:Kinnari;-inkscape-font-specification:'Kinnari Bold Italic'"
             id="path881" /><path
             d="m 189.54522,160.305 q 0,1.76 -1.21,3.19 -1.21,1.43 -1.21,2.75 0,1.98 2.86,1.98 3.08,0 4.84,-3.63 1.76,-3.52 4.95,-15.84 l 12.65,-47.52 q 1.21,-4.620002 1.21,-6.600002 0,-3.19 -4.62,-3.63 l -3.41,-0.66 v -2.64 h 32.67 v 2.64 q -4.07,0.44 -5.83,2.09 -1.65,1.54 -3.19,5.83 l -13.97,52.910002 q -2.86,10.78 -8.58,15.95 -5.61,5.17 -14.52,5.17 -7.15,0 -11.77,-3.19 -4.73,-3.19 -4.73,-7.92 0,-3.3 1.98,-5.5 1.98,-2.31 4.95,-2.31 2.86,0 4.84,2.09 2.09,1.98 2.09,4.84 z"
             style="font-style:italic;font-weight:bold;font-size:110px;line-height:1.25;font-family:Kinnari;-inkscape-font-specification:'Kinnari Bold Italic'"
             id="path883" /></g><g
           aria-label="BDJ"
           id="text4150-7"
           style="line-height:0%;letter-spacing:0px;word-spacing:0px;display:inline;fill:#e9b117;stroke-width:1px"><path
             d="m 40.965468,90.964998 q 0,-1.43 -0.66,-2.31 -0.55,-0.99 -2.31,-1.43 -1.65,-0.55 -2.2,-0.55 -0.55,-0.11 -2.86,-0.33 v -2.64 h 29.92 q 25.96,0 25.96,16.06 0,4.400002 -1.87,7.810002 -1.87,3.3 -5.5,5.39 -3.52,2.09 -6.38,3.19 -2.75,1.1 -7.04,2.2 8.36,2.64 11.77,6.27 3.41,3.63 3.41,9.9 0,10.67 -8.69,16.72 -8.69,6.05 -23.87,6.05 h -33 v -2.75 q 3.85,-0.55 5.61,-2.09 1.76,-1.54 3.08,-5.83 l 13.53,-49.390002 q 1.1,-4.62 1.1,-6.27 z m 7.26,62.810002 q 5.17,0 8.91,-2.31 3.85,-2.42 5.61,-6.05 1.87,-3.74 2.64,-7.04 0.88,-3.3 0.88,-6.27 0,-6.05 -3.74,-9.24 -2.64,-2.31 -12.65,-2.75 l -7.26,26.84 q -0.66,2.86 -0.66,3.3 0,3.52 6.27,3.52 z m 2.42,-36.96 q 3.63,-0.11 5.72,-0.33 2.09,-0.22 5.61,-1.21 3.63,-1.1 5.61,-2.86 1.98,-1.76 3.52,-5.39 1.65,-3.63 1.65,-8.690002 0,-11.11 -9.68,-11.11 -2.64,0 -3.74,0.99 -1.1,0.88 -1.98,3.85 z"
             style="font-style:italic;font-weight:bold;font-size:110px;line-height:1.25;font-family:Kinnari;-inkscape-font-specification:'Kinnari Bold Italic'"
             id="path904" /><path
             d="m 111.8053,91.074998 q 0,-0.99 -0.33,-1.65 -0.22,-0.66 -0.55,-0.99 -0.22,-0.44 -1.1,-0.66 -0.88,-0.33 -1.54,-0.44 -0.55,-0.22 -2.09,-0.44 -1.43,-0.33 -2.42,-0.55 v -2.64 h 31.9 q 15.62,0 24.42,8.03 8.8,7.92 8.8,22.110002 0,18.7 -14.08,31.13 -13.97,12.32 -34.98,12.32 H 88.485295 v -2.75 q 3.96,-0.55 5.72,-2.09 1.76,-1.54 2.97,-5.83 L 110.4853,97.564998 q 1.32,-5.39 1.32,-6.49 z m 16.61,0.11 -14.19,52.690002 q -1.32,4.95 -1.32,6.05 0,3.63 5.94,3.63 8.69,0 15.4,-4.18 6.71,-4.18 10.56,-11 3.96,-6.93 5.83,-14.85 1.98,-8.03 1.98,-16.5 0,-20.020002 -18.04,-20.020002 -5.06,0 -6.16,4.18 z"
             style="font-style:italic;font-weight:bold;font-size:110px;line-height:1.25;font-family:Kinnari;-inkscape-font-specification:'Kinnari Bold Italic'"
             id="path906" /><path
             d="m 181.54522,156.305 q 0,1.76 -1.21,3.19 -1.21,1.43 -1.21,2.75 0,1.98 2.86,1.98 3.08,0 4.84,-3.63 1.76,-3.52 4.95,-15.84 l 12.65,-47.520002 q 1.21,-4.62 1.21,-6.6 0,-3.19 -4.62,-3.63 l -3.41,-0.66 v -2.64 h 32.67 v 2.64 q -4.07,0.44 -5.83,2.09 -1.65,1.54 -3.19,5.83 l -13.97,52.910002 q -2.86,10.78 -8.58,15.95 -5.61,5.17 -14.52,5.17 -7.15,0 -11.77,-3.19 -4.73,-3.19 -4.73,-7.92 0,-3.3 1.98,-5.5 1.98,-2.31 4.95,-2.31 2.86,0 4.84,2.09 2.09,1.98 2.09,4.84 z"
             style="font-style:italic;font-weight:bold;font-size:110px;line-height:1.25;font-family:Kinnari;-inkscape-font-specification:'Kinnari Bold Italic'"
             id="path908" /></g><g
           aria-label="BDJ"
           id="text4150-6"
           style="line-height:0%;letter-spacing:0px;word-spacing:0px;display:inline;stroke-width:1px"><path
             d="m 44.965468,92.424944 q 0,-1.43 -0.66,-2.31 -0.55,-0.99 -2.31,-1.43 -1.65,-0.55 -2.2,-0.55 -0.55,-0.11 -2.86,-0.33 v -2.64 h 29.92 q 25.96,0 25.96,16.059996 0,4.4 -1.87,7.81 -1.87,3.3 -5.5,5.39 -3.52,2.09 -6.38,3.19 -2.75,1.1 -7.04,2.2 8.36,2.64 11.77,6.27 3.41,3.63 3.41,9.9 0,10.67 -8.69,16.72 -8.69,6.05 -23.87,6.05 h -33 v -2.75 q 3.85,-0.55 5.61,-2.09 1.76,-1.54 3.08,-5.83 l 13.53,-49.389996 q 1.1,-4.62 1.1,-6.27 z m 7.26,62.809996 q 5.17,0 8.91,-2.31 3.85,-2.42 5.61,-6.05 1.87,-3.74 2.64,-7.04 0.88,-3.3 0.88,-6.27 0,-6.05 -3.74,-9.24 -2.64,-2.31 -12.65,-2.75 l -7.26,26.84 q -0.66,2.86 -0.66,3.3 0,3.52 6.27,3.52 z m 2.42,-36.96 q 3.63,-0.11 5.72,-0.33 2.09,-0.22 5.61,-1.21 3.63,-1.1 5.61,-2.86 1.98,-1.76 3.52,-5.39 1.65,-3.63 1.65,-8.689996 0,-11.11 -9.68,-11.11 -2.64,0 -3.74,0.99 -1.1,0.88 -1.98,3.85 z"
             style="font-style:italic;font-weight:bold;font-size:110px;line-height:1.25;font-family:Kinnari;-inkscape-font-specification:'Kinnari Bold Italic'"
             id="path929" /><path
             d="m 115.8053,92.534944 q 0,-0.99 -0.33,-1.65 -0.22,-0.66 -0.55,-0.99 -0.22,-0.44 -1.1,-0.66 -0.88,-0.33 -1.54,-0.44 -0.55,-0.22 -2.09,-0.44 -1.43,-0.33 -2.42,-0.55 v -2.64 h 31.9 q 15.62,0 24.42,8.03 8.8,7.919996 8.8,22.109996 0,18.7 -14.08,31.13 -13.97,12.32 -34.98,12.32 H 92.485295 v -2.75 q 3.96,-0.55 5.72,-2.09 1.76,-1.54 2.970005,-5.83 l 13.31,-49.059996 q 1.32,-5.39 1.32,-6.49 z m 16.61,0.11 -14.19,52.689996 q -1.32,4.95 -1.32,6.05 0,3.63 5.94,3.63 8.69,0 15.4,-4.18 6.71,-4.18 10.56,-11 3.96,-6.93 5.83,-14.85 1.98,-8.03 1.98,-16.5 0,-20.019996 -18.04,-20.019996 -5.06,0 -6.16,4.18 z"
             style="font-style:italic;font-weight:bold;font-size:110px;line-height:1.25;font-family:Kinnari;-inkscape-font-specification:'Kinnari Bold Italic'"
             id="path931" /><path
             d="m 185.54522,157.76494 q 0,1.76 -1.21,3.19 -1.21,1.43 -1.21,2.75 0,1.98 2.86,1.98 3.08,0 4.84,-3.63 1.76,-3.52 4.95,-15.84 l 12.65,-47.519996 q 1.21,-4.62 1.21,-6.6 0,-3.19 -4.62,-3.63 l -3.41,-0.66 v -2.64 h 32.67 v 2.64 q -4.07,0.44 -5.83,2.09 -1.65,1.54 -3.19,5.83 l -13.97,52.909996 q -2.86,10.78 -8.58,15.95 -5.61,5.17 -14.52,5.17 -7.15,0 -11.77,-3.19 -4.73,-3.19 -4.73,-7.92 0,-3.3 1.98,-5.5 1.98,-2.31 4.95,-2.31 2.86,0 4.84,2.09 2.09,1.98 2.09,4.84 z"
             style="font-style:italic;font-weight:bold;font-size:110px;line-height:1.25;font-family:Kinnari;-inkscape-font-specification:'Kinnari Bold Italic'"
             id="path933" /></g></g></g><g
       id="layer7"
       inkscape:label="4"
       transform="matrix(2.9568089,0,0,2.9568089,-157.78063,-173.06107)"><g
         aria-label="4"
         id="text67795"
         style="font-size:240px;line-height:1.25;letter-spacing:0px;word-spacing:0px;fill:#e9b117;stroke:#090102;stroke-width:3.5"><path
           d="m 241.54586,97.333017 q -1.68,6.480003 -21.12,91.440003 h 19.92 l -8.88,12.48 h -13.92 q -4.08,21.84 -4.08,24.72 0,4.08 2.64,8.88 l -0.48,1.68 q -12.72,2.64 -19.92,5.76 -1.92,-0.24 -5.04,-2.64 l 10.08,-38.4 q -1.92,0.24 -5.28,0.24 -7.68,0 -23.28,-0.48 -15.6,-0.48 -23.28,-0.48 6.24,-12.72 31.44,-43.44 10.56,-12.96 30.24,-35.28 l 9.84,-11.28 q 1.44,-1.92 4.32,-5.04 0.72,-0.72 16.8,-8.160003 z m -21.6,23.280003 q -18.24,22.08 -54.24,67.2 31.68,0.96 31.68,0.96 h 6.48 z"
           style="font-style:italic;font-family:'Chancery Uralic';-inkscape-font-specification:'Chancery Uralic Italic'"
           id="path837" /></g></g></g><g
     id="g1353"
     style="display:inline"
     transform="matrix(2.602379,0,0,2.602379,-170.26339,-184.9015)"><g
       aria-label="♪"
       id="text5956-36"
       style="font-size:74.6667px;line-height:1.25;letter-spacing:0px;word-spacing:0px;fill:#1d1c6b;stroke-width:1.5"><path
         d="m 38.402026,20.389635 h 3.171877 l 0.291666,0.255209 v 1.421875 q 0.984376,1.968751 7.291671,4.265627 8.750004,2.552085 8.750004,7.583337 0,5.32292 -4.447919,8.822921 h -0.145833 l -1.093751,-1.166667 q 2.223959,-1.786459 2.223959,-4.848961 0,-2.552084 -8.312504,-5.140627 -3.354168,-1.531251 -4.265627,-2.479168 v 38.864602 q 0,5.578128 -8.16667,7.218753 h -2.078126 q -8.822921,0 -8.822921,-6.125003 0,-4.776044 7.72917,-5.614586 h 0.838542 q 3.500002,0 6.744795,2.333335 V 20.644844 Z"
         id="path1392" /></g><g
       aria-label="♪"
       id="text5956-3"
       style="font-size:74.6667px;line-height:1.25;letter-spacing:0px;word-spacing:0px;display:inline;fill:#1d1c6b;stroke-width:1.5"><path
         d="m 147.47991,20.389635 h 3.17187 l 0.29167,0.255209 v 1.421875 q 0.98438,1.968751 7.29167,4.265627 8.75,2.552085 8.75,7.583337 0,5.32292 -4.44791,8.822921 h -0.14584 l -1.09375,-1.166667 q 2.22396,-1.786459 2.22396,-4.848961 0,-2.552084 -8.3125,-5.140627 -3.35417,-1.531251 -4.26563,-2.479168 v 38.864602 q 0,5.578128 -8.16667,7.218753 h -2.07813 q -8.82292,0 -8.82292,-6.125003 0,-4.776044 7.72917,-5.614586 h 0.83855 q 3.5,0 6.74479,2.333335 V 20.644844 Z"
         id="path1395" /></g><g
       aria-label="♪"
       id="text5956-7"
       style="font-size:74.6667px;line-height:1.25;letter-spacing:0px;word-spacing:0px;display:inline;fill:#1d1c6b;stroke-width:1.5"><path
         d="m 92.940967,20.389635 h 3.171876 l 0.291667,0.255209 v 1.421875 q 0.984375,1.968751 7.29167,4.265627 8.75,2.552085 8.75,7.583337 0,5.32292 -4.44791,8.822921 h -0.14584 l -1.09375,-1.166667 q 2.22396,-1.786459 2.22396,-4.848961 0,-2.552084 -8.3125,-5.140627 -3.354171,-1.531251 -4.26563,-2.479168 v 38.864602 q 0,5.578128 -8.166671,7.218753 h -2.078126 q -8.822921,0 -8.822921,-6.125003 0,-4.776044 7.729171,-5.614586 h 0.838542 q 3.500002,0 6.744795,2.333335 V 20.644844 Z"
         id="path1398" /></g><g
       aria-label="."
       id="text1257-3"
       style="font-size:42.6667px;line-height:1.25;letter-spacing:0px;word-spacing:0px;display:inline"><path
         d="m 64.976684,47.766753 q 0,-1.578668 0.768001,-2.218668 0.768001,-0.640001 1.834668,-0.640001 1.109334,0 1.877335,0.640001 0.810667,0.64 0.810667,2.218668 0,1.536001 -0.810667,2.218669 -0.768001,0.682667 -1.877335,0.682667 -1.066667,0 -1.834668,-0.682667 -0.768001,-0.682668 -0.768001,-2.218669 z"
         id="path1401" /></g><g
       aria-label="."
       id="text1257-6"
       style="font-size:42.6667px;line-height:1.25;letter-spacing:0px;word-spacing:0px;display:inline"><path
         d="m 119.51562,47.766753 q 0,-1.578668 0.768,-2.218668 0.768,-0.640001 1.83467,-0.640001 1.10933,0 1.87733,0.640001 0.81067,0.64 0.81067,2.218668 0,1.536001 -0.81067,2.218669 -0.768,0.682667 -1.87733,0.682667 -1.06667,0 -1.83467,-0.682667 -0.768,-0.682668 -0.768,-2.218669 z"
         id="path1404" /></g></g></svg>
