<?xml version="1.0" encoding="UTF-8" standalone="no"?>
<!-- Created with Inkscape (http://www.inkscape.org/) -->

<svg
   width="50.186958"
   height="26.079861"
   id="svg4168"
   version="1.1"
   inkscape:version="1.4.2 (ebf0e940d0, 2025-05-08)"
   viewBox="0 0 50.186958 26.079861"
   sodipodi:docname="switch-off-marks.svg"
   xmlns:inkscape="http://www.inkscape.org/namespaces/inkscape"
   xmlns:sodipodi="http://sodipodi.sourceforge.net/DTD/sodipodi-0.dtd"
   xmlns:xlink="http://www.w3.org/1999/xlink"
   xmlns="http://www.w3.org/2000/svg"
   xmlns:svg="http://www.w3.org/2000/svg"
   xmlns:rdf="http://www.w3.org/1999/02/22-rdf-syntax-ns#"
   xmlns:cc="http://creativecommons.org/ns#"
   xmlns:dc="http://purl.org/dc/elements/1.1/">
  <defs
     id="defs4170">
    <linearGradient
       inkscape:collect="always"
       id="linearGradient907">
      <stop
         style="stop-color:#ffa600;stop-opacity:1"
         offset="0"
         id="stop903" />
      <stop
         style="stop-color:#ffa600;stop-opacity:0.5"
         offset="1"
         id="stop905" />
    </linearGradient>
    <radialGradient
       inkscape:collect="always"
       xlink:href="#linearGradient907"
       id="radialGradient909"
       cx="41.897316"
       cy="26.995226"
       fx="41.897316"
       fy="26.995226"
       r="26.999996"
       gradientUnits="userSpaceOnUse"
       gradientTransform="matrix(0.52330944,0.42529159,-0.30993358,0.37612849,-55.093739,20.871985)" />
  </defs>
  <sodipodi:namedview
     id="base"
     pagecolor="#949494"
     bordercolor="#666666"
     borderopacity="1.0"
     inkscape:pageopacity="0"
     inkscape:pageshadow="2"
     inkscape:zoom="11.696266"
     inkscape:cx="25.093478"
     inkscape:cy="13.038349"
     inkscape:current-layer="layer1"
     showgrid="true"
     inkscape:document-units="px"
     inkscape:grid-bbox="true"
     fit-margin-top="0"
     fit-margin-left="0"
     fit-margin-right="0"
     fit-margin-bottom="0"
     inkscape:window-width="1559"
     inkscape:window-height="872"
     inkscape:window-x="280"
     inkscape:window-y="0"
     inkscape:window-maximized="0"
     showborder="true"
     inkscape:pagecheckerboard="true"
     inkscape:showpageshadow="false"
     inkscape:deskcolor="#d1d1d1" />
  <metadata
     id="metadata4173">
    <rdf:RDF>
      <cc:Work
         rdf:about="">
        <dc:format>image/svg+xml</dc:format>
        <dc:type
           rdf:resource="http://purl.org/dc/dcmitype/StillImage" />
        <cc:license
           rdf:resource="http://creativecommons.org/licenses/by/4.0/" />
      </cc:Work>
      <cc:License
         rdf:about="http://creativecommons.org/licenses/by/4.0/">
        <cc:permits
           rdf:resource="http://creativecommons.org/ns#Reproduction" />
        <cc:permits
           rdf:resource="http://creativecommons.org/ns#Distribution" />
        <cc:requires
           rdf:resource="http://creativecommons.org/ns#Notice" />
        <cc:requires
           rdf:resource="http://creativecommons.org/ns#Attribution" />
        <cc:permits
           rdf:resource="http://creativecommons.org/ns#DerivativeWorks" />
      </cc:License>
    </rdf:RDF>
  </metadata>
  <g
     id="layer1"
     inkscape:label="Layer 1"
     inkscape:groupmode="layer"
     transform="translate(50.426922,-38.483255)">
    <g
       id="g1">
      <ellipse
         style="fill:url(#radialGradient909);fill-opacity:1;stroke:#c8c8c8;stroke-width:0;stroke-miterlimit:4;stroke-dasharray:none;stroke-opacity:1"
         id="path4754"
         cx="-37.145588"
         cy="51.523186"
         rx="13.281334"
         ry="13.039929" />
      <path
         style="font-size:28.6819px;line-height:1.25;-inkscape-font-specification:'sans-serif, Normal';letter-spacing:0px;word-spacing:0px;fill:#c10505;stroke-width:0.573638px"
         d="m -2.7630547,40.914296 q 0.4061402,0 0.7842707,0.420145 0.2800967,0.308106 0.3921354,1.120387 0.3641256,-0.014 0.504174,0.05602 0.44815467,0.168058 0.64422234,0.364126 0.19606768,0.182063 0.19606768,0.476164 0,0.560194 -0.22407734,0.784271 -3.37516498,3.067059 -6.66630098,7.450572 2.0727154,2.856986 4.1454309,5.125769 0.2380821,0.252087 0.2380821,0.588203 0,0.686237 -0.420145,1.050362 -0.2800967,0.238083 -0.7982755,0.266092 -0.02801,0.238082 -0.2240774,0.728252 -0.336116,0.81228 -0.7842707,0.81228 -0.504174,0 -0.924319,-0.336116 -0.1120387,0.252087 -0.3081064,0.40614 -0.504174,0.378131 -0.8823045,0.378131 -0.3221112,0 -0.6862369,-0.392136 -1.2464302,-1.330459 -2.9410147,-4.005382 -3.221112,3.655261 -4.453538,5.545914 -0.238082,0.364126 -0.532183,0.364126 0,0 -0.02801,0 -0.252087,0 -0.490169,-0.504174 -0.210073,-0.43415 -0.238082,-0.616213 -0.280097,0.168058 -0.532184,0.168058 -0.350121,0 -0.756261,-0.420145 -0.504174,-0.490169 -0.504174,-0.728251 0,-0.378131 0.420145,-1.008348 -0.126044,-0.04201 -0.252087,-0.224078 -0.252087,-0.336116 -0.252087,-0.672232 0,-0.294101 0.336116,-0.728251 1.820628,-2.464851 4.565576,-5.433876 -1.70859,-2.646913 -3.095069,-6.386204 -0.308106,-0.854295 -0.308106,-1.24643 0,-0.364126 0.322111,-1.050363 0.224078,-0.448155 0.532184,-0.448155 0.364126,0 1.036358,0.546189 0.014,-0.196068 0.168058,-0.546189 0.322111,-0.700241 0.560193,-0.700241 0.602208,0 0.784271,0.364125 1.484512,2.744948 3.5852373,5.349847 3.2351167,-3.697276 6.7223203,-6.75033 0.168058,-0.168058 0.3641257,-0.168058 z"
         id="text4826"
         transform="scale(0.99075969,1.0093265)"
         aria-label="✘" />
    </g>
  </g>
</svg>
